<svg width="152" height="152" viewBox="0 0 152 152" fill="none" xmlns="http://www.w3.org/2000/svg">
<circle cx="76" cy="76" r="76" fill="#FFF4DF"/>
<path d="M46.8333 111C46.8333 111 41 111 41 105.167C41 99.3333 46.8333 81.8333 76 81.8333C105.167 81.8333 111 99.3333 111 105.167C111 111 105.167 111 105.167 111H46.8333ZM76 76C80.6413 76 85.0925 74.1563 88.3744 70.8744C91.6563 67.5925 93.5 63.1413 93.5 58.5C93.5 53.8587 91.6563 49.4075 88.3744 46.1256C85.0925 42.8437 80.6413 41 76 41C71.3587 41 66.9075 42.8437 63.6256 46.1256C60.3437 49.4075 58.5 53.8587 58.5 58.5C58.5 63.1413 60.3437 67.5925 63.6256 70.8744C66.9075 74.1563 71.3587 76 76 76V76Z" fill="#FFB83C"/>
</svg>
