<svg width="512" height="512" viewBox="0 0 512 512" fill="none" xmlns="http://www.w3.org/2000/svg">
<g clip-path="url(#clip0_2_200)">
<path d="M388.738 97.8904C394.167 96.8002 397.684 91.5156 396.594 86.0868C395.504 80.6581 390.219 77.141 384.79 78.2311C379.362 79.3213 375.844 84.606 376.935 90.0347C378.025 95.4635 383.309 98.9806 388.738 97.8904Z" fill="#00C5B5"/>
<path d="M496.251 126.595L430.924 97.5481C425.869 95.3001 419.947 97.5761 417.698 102.633C415.449 107.689 417.726 113.61 422.782 115.859L488.109 144.906C491.585 146.451 491.96 149.565 491.96 150.833C491.96 152.1 491.585 155.215 488.109 156.76L272.39 252.675C270.715 253.421 268.793 253.42 267.119 252.675L51.401 156.759C47.925 155.214 47.55 152.1 47.55 150.832C47.55 149.565 47.925 146.45 51.402 144.905L267.119 48.9901C268.793 48.2431 270.715 48.2431 272.39 48.9901L340.948 79.4721C346.004 81.7201 351.926 79.4451 354.175 74.3871C356.423 69.3311 354.147 63.4101 349.09 61.1611L280.533 30.6791C273.684 27.6341 265.829 27.6331 258.979 30.6791L43.26 126.595C33.546 130.914 27.51 140.202 27.51 150.833V316.666C11.795 320.133 0 334.164 0 350.905V405.262C0 419.074 11.237 430.311 25.049 430.311H50.011C63.823 430.311 75.06 419.074 75.06 405.262V350.905C75.06 334.163 63.264 320.132 47.549 316.666V176.978L94.945 198.052V300.17C94.945 314.389 103.501 326.938 116.741 332.14L258.614 387.882C262.662 389.469 266.914 390.264 271.168 390.264C275.423 390.264 279.679 389.469 283.73 387.88L325.966 371.289L343.624 437.188C345.649 444.748 351.371 450.47 358.93 452.495C366.488 454.517 374.306 452.426 379.839 446.891C380.228 446.503 380.672 446.42 380.975 446.42C381.279 446.42 381.722 446.502 382.112 446.892L412.486 477.266C416.536 481.316 422.087 483.606 427.801 483.606C428.01 483.606 428.22 483.603 428.43 483.597C434.364 483.422 440.03 480.777 443.974 476.339L475.472 440.893C483.073 432.339 482.688 419.299 474.597 411.208L446.196 382.808C445.807 382.42 445.725 381.975 445.725 381.672C445.725 381.368 445.807 380.923 446.196 380.535C451.729 375.002 453.824 367.186 451.798 359.627C449.773 352.067 444.051 346.345 436.492 344.32L411.586 337.646L423.583 332.932C436.818 327.733 445.369 315.184 445.369 300.962V197.694L496.25 175.071C505.964 170.752 511.999 161.464 511.999 150.833C512 140.202 505.965 130.914 496.251 126.595ZM55.021 350.905V405.262C55.021 408.024 52.773 410.272 50.011 410.272H25.049C22.287 410.272 20.039 408.024 20.039 405.262V350.905C20.039 342.617 26.781 335.876 35.068 335.876H39.991C48.279 335.876 55.021 342.618 55.021 350.905ZM432.443 364.811C432.683 365.707 432.189 366.2 432.027 366.364C427.938 370.452 425.687 375.888 425.687 381.67C425.687 387.452 427.939 392.888 432.027 396.976L460.427 425.376C461.028 425.977 461.056 426.945 460.492 427.58L428.994 463.025C428.613 463.454 428.156 463.554 427.84 463.564C427.521 463.562 427.061 463.499 426.656 463.093L396.282 432.72C392.193 428.631 386.758 426.379 380.975 426.379C375.193 426.379 369.757 428.631 365.668 432.72C365.506 432.882 365.013 433.379 364.116 433.136C363.22 432.896 363.039 432.221 362.98 432L338.691 341.354C338.632 341.132 338.451 340.457 339.107 339.801C339.764 339.142 340.438 339.325 340.659 339.384L431.305 363.673C431.527 363.734 432.203 363.915 432.443 364.811ZM425.331 300.961C425.331 306.886 421.769 312.114 416.257 314.279L379.007 328.915L345.847 320.03C338.286 318.002 330.472 320.099 324.938 325.633C319.405 331.167 317.31 338.983 319.336 346.542L320.747 351.81L276.409 369.226C273.03 370.55 269.31 370.551 265.936 369.228L124.069 313.488C118.55 311.321 114.985 306.093 114.985 300.17V206.962L258.979 270.987C262.404 272.51 266.08 273.271 269.756 273.271C273.432 273.271 277.108 272.51 280.533 270.987L425.331 206.605V300.961Z" fill="#00C5B5"/>
</g>
<defs>
<clipPath id="clip0_2_200">
<rect width="512" height="512" fill="white"/>
</clipPath>
</defs>
</svg>
