<svg width="512" height="512" viewBox="0 0 512 512" fill="none" xmlns="http://www.w3.org/2000/svg">
<g clip-path="url(#clip0_2_377)">
<path d="M260.545 189.495C266.068 189.495 270.545 185.018 270.545 179.495C270.545 173.972 266.068 169.495 260.545 169.495C255.022 169.495 250.545 173.972 250.545 179.495C250.545 185.018 255.022 189.495 260.545 189.495Z" fill="#79C9F9"/>
<path d="M458.481 233.025C447.115 225.595 432.899 224.411 420.459 229.859L385.276 245.27C382.942 246.301 380.262 245.695 378.604 243.766C368.289 231.757 344.138 203.636 297.037 220.601C296.991 220.618 296.945 220.634 296.899 220.652L210.999 253.026L145.992 224.324C133.546 218.828 119.309 219.981 107.911 227.409C96.5121 234.837 89.7061 247.394 89.7061 261V334.354C89.7061 350.083 98.9701 364.427 113.307 370.898L120.153 373.988C117.191 378.375 115.466 383.499 115.19 388.922C114.79 396.773 118.103 405.009 123.372 410.843C128.396 416.406 135.707 420.295 142.629 421.052C142.68 428.015 145.597 435.45 150.619 441.012C150.62 441.013 150.618 441.012 150.619 441.012C155.407 446.314 162.654 450.554 169.674 451.416C169.818 458.488 173.091 465.895 177.88 471.197C182.904 476.76 190.215 480.649 197.137 481.406C197.188 488.369 200.314 496.037 205.336 501.598C210.605 507.433 218.461 511.564 226.312 511.964C234.18 512.37 241.788 509.548 247.64 504.317C250.326 501.916 252.988 499.487 255.662 497.072C258.382 494.615 260.573 491.729 262.185 488.557L311.292 509.156C320.474 512.994 331.147 512.04 339.531 506.681C344.846 503.279 348.938 498.405 351.361 492.595C353.06 488.533 353.813 484.312 353.737 480.172C358.752 481.128 363.977 480.808 368.838 479.244C377.409 476.491 384.322 470.151 387.808 461.838C389.747 457.198 390.503 452.265 390.086 447.394C401.402 446.324 411.431 439.846 415.774 429.463C417.763 424.701 418.354 419.509 417.639 414.409C434.188 414.752 448.356 401.358 448.965 384.793C449.17 379.215 447.799 373.646 445.099 368.767L453.952 364.5C467.733 357.858 476.638 343.681 476.638 328.383V266.585C476.637 253.002 469.85 240.457 458.481 233.025ZM138.874 398.109C137.36 396.432 135.952 394.817 135.428 392.535C134.67 389.239 135.779 385.713 138.288 383.446L165.595 358.785C167.772 356.82 170.792 355.982 173.672 356.533C176.086 356.995 177.884 358.381 179.49 360.159C181.096 361.937 182.293 363.867 182.507 366.315C182.763 369.236 181.622 372.156 179.446 374.121L152.139 398.782C148.294 402.256 142.344 401.953 138.874 398.109ZM166.328 428.508C164.686 426.69 163.22 424.93 162.789 422.423C162.248 419.274 163.369 415.993 165.743 413.849L201.527 381.531C203.654 379.609 206.607 378.762 209.431 379.251C211.919 379.681 213.773 381.078 215.422 382.904C217.071 384.729 218.272 386.718 218.447 389.236C218.646 392.095 217.505 394.946 215.377 396.867C215.377 396.867 177.748 430.582 176.534 431.032C175.281 431.497 173.933 431.68 172.601 431.578C170.201 431.394 167.945 430.297 166.328 428.508ZM193.382 458.463C191.971 456.9 190.626 455.397 190.042 453.306C189.599 451.718 189.584 450.009 189.999 448.413C190.195 447.658 190.488 446.923 190.868 446.241C191.394 445.297 218.648 420.916 218.648 420.916C221.133 419.674 224.135 419.616 226.67 420.75C228.431 421.538 229.707 422.886 230.954 424.308C234.368 428.201 234.324 434.14 230.389 437.695L206.647 459.137C202.802 462.61 196.852 462.306 193.382 458.463ZM245.316 475.704C245.189 478.21 244.093 480.515 242.231 482.196L234.101 489.538C231.812 491.606 228.6 492.418 225.6 491.699C223.137 491.109 221.437 489.547 219.808 487.723C216.321 483.817 216.24 477.824 220.25 474.202L228.379 466.861C231.858 463.718 237.295 463.668 240.832 466.742C243.454 469.02 245.499 472.109 245.316 475.704ZM428.091 387.823C425.865 393.161 419.517 395.822 414.164 393.568L339.942 362.029C334.847 359.867 328.967 362.24 326.802 367.332C326.771 367.405 326.75 367.48 326.721 367.554C326.706 367.587 326.687 367.616 326.672 367.649C324.4 372.695 326.649 378.627 331.694 380.898L388.24 406.356C388.322 406.393 388.404 406.429 388.488 406.464C394.014 408.775 397.889 413.736 397.911 418.527C397.916 419.648 397.705 420.73 397.285 421.735C395.062 427.049 387.328 429.096 380.349 426.234L323.941 400.83C318.896 398.558 312.964 400.807 310.691 405.851C310.619 406.011 310.564 406.175 310.501 406.338C310.469 406.409 310.429 406.476 310.399 406.548C308.228 411.638 310.595 417.523 315.686 419.694L340.919 430.454L366.566 442.004C370.545 445.545 371.284 451.666 368.256 456.049C365.44 460.126 359.987 461.778 355.394 459.868L307.563 439.473C302.473 437.302 296.588 439.67 294.417 444.759C292.887 448.347 293.618 452.324 295.962 455.123C296.967 456.628 298.383 457.885 300.153 458.686L327.014 470.829C327.1 470.868 327.187 470.905 327.274 470.942C332.635 473.185 335.148 479.429 332.871 484.871C330.661 490.172 324.382 492.907 319.033 490.67L264.414 467.758C263.237 463.251 260.362 458.361 257.15 454.805C254.703 452.095 251.229 449.253 248.158 447.675C251.341 443.174 253.201 437.861 253.488 432.222C253.888 424.372 250.576 416.137 245.307 410.302C242.692 407.406 238.963 404.405 235.546 402.77C240.625 392.297 238.567 378.63 230.299 369.475C223.007 361.4 211.591 357.622 201.644 359.742C200.471 355.212 197.59 350.302 194.364 346.73C189.095 340.895 181.238 336.764 173.388 336.364C165.538 335.956 158 338.646 152.166 343.915L135.53 358.94L121.553 352.632C114.382 349.396 109.749 342.222 109.749 334.354V261C109.749 254.093 113.068 247.969 118.855 244.199C124.642 240.428 131.584 239.864 137.903 242.656L194.235 267.528C191.265 273.116 190.004 279.649 190.919 286.357C191.367 289.618 192.307 292.755 193.713 295.679C199.73 308.196 213.447 315.26 227.063 312.873C227.231 312.844 227.398 312.809 227.564 312.771L280.24 300.723L421.648 373.496C424.178 374.798 426.297 376.061 427.684 378.672C429.178 381.492 429.324 384.878 428.091 387.823ZM456.598 328.382C456.598 336.034 452.144 343.125 445.251 346.447L428.534 354.504L286.153 281.23C284.087 280.146 281.602 279.845 279.334 280.372L223.382 293.169C218.628 293.907 213.881 291.391 211.768 286.995C211.267 285.953 210.93 284.821 210.768 283.64C210.072 278.534 212.909 273.717 217.674 271.925L303.897 239.429C335.32 228.142 351.089 242.486 363.404 256.823C370.863 265.506 382.914 268.229 393.349 263.611L428.498 248.215C434.816 245.449 441.745 246.027 447.516 249.798C453.287 253.571 456.597 259.688 456.597 266.584V328.382H456.598Z" fill="#79C9F9"/>
<path d="M434.926 0H101.098C78.0981 0 59.3871 18.711 59.3871 41.711V143.048L36.2541 194.208C34.6151 197.832 35.2761 202.083 37.9361 205.039C39.8691 207.187 42.5921 208.357 45.3851 208.356C46.4361 208.356 47.4981 208.191 48.5301 207.849L103.205 189.763H215.632C221.166 189.763 225.651 185.277 225.651 179.744C225.651 174.211 221.165 169.725 215.632 169.725H101.591C100.522 169.725 99.4591 169.896 98.4441 170.232L63.9251 181.651L78.5361 149.338C79.1231 148.041 79.4261 146.634 79.4261 145.21V41.711C79.4261 29.761 89.1481 20.039 101.098 20.039H434.927C446.876 20.039 456.598 29.761 456.598 41.711V148.052C456.598 160.002 446.876 169.724 434.927 169.724H305.458C299.925 169.724 295.439 174.21 295.439 179.743C295.439 185.276 299.925 189.762 305.458 189.762H434.927C457.926 189.762 476.637 171.051 476.637 148.051V41.711C476.637 18.711 457.925 0 434.926 0V0Z" fill="#79C9F9"/>
<path d="M386.333 65.002H145.598C140.075 65.002 135.598 60.524 135.598 55.002C135.598 49.48 140.075 45.002 145.598 45.002H386.333C391.855 45.002 396.333 49.48 396.333 55.002C396.333 60.524 391.855 65.002 386.333 65.002Z" fill="#79C9F9"/>
<path d="M362.5 105.002H169.431C163.908 105.002 159.431 100.524 159.431 95.002C159.431 89.48 163.908 85.002 169.431 85.002H362.5C368.022 85.002 372.5 89.48 372.5 95.002C372.5 100.524 368.022 105.002 362.5 105.002Z" fill="#79C9F9"/>
<path d="M341 145.002H190.931C185.408 145.002 180.931 140.524 180.931 135.002C180.931 129.48 185.408 125.002 190.931 125.002H341C346.522 125.002 351 129.48 351 135.002C351 140.524 346.522 145.002 341 145.002Z" fill="#79C9F9"/>
</g>
<defs>
<clipPath id="clip0_2_377">
<rect width="512" height="512" fill="white"/>
</clipPath>
</defs>
</svg>
