<svg width="512" height="512" viewBox="0 0 512 512" fill="none" xmlns="http://www.w3.org/2000/svg">
<g clip-path="url(#clip0_2_43)">
<path d="M256 156.555C250.477 156.555 246 161.032 246 166.555C246 172.078 250.477 176.555 256 176.555C261.523 176.555 266 172.078 266 166.555C266 161.032 261.523 156.555 256 156.555Z" fill="#A5A3EF"/>
<path d="M463.959 78.268H444.192L459.722 67.253C464.236 64.051 465.299 57.797 462.098 53.284C458.897 48.771 452.643 47.706 448.129 50.908L421.762 69.61V40.16C421.761 18.015 403.745 0 381.602 0H130.398C108.255 0 90.239 18.015 90.239 40.159V78.268H48.04C25.897 78.268 7.881 96.283 7.881 118.427V393.575C7.881 415.718 25.896 433.734 48.04 433.734H67.808L52.278 444.749C48.19 447.649 46.87 453.326 49.281 457.726C52.12 462.908 59.042 464.519 63.871 461.094L90.239 442.392V471.923C90.239 494.022 108.218 512.001 130.317 512.001H381.682C403.781 512.001 421.76 494.022 421.76 471.923V433.734H463.958C486.102 433.734 504.118 415.719 504.118 393.575V118.426C504.118 96.283 486.103 78.268 463.959 78.268ZM401.722 471.922C401.722 482.971 392.733 491.961 381.683 491.961H130.317C119.268 491.961 110.278 482.971 110.278 471.922V375.504C110.278 364.455 119.268 355.465 130.317 355.465H381.682C392.732 355.465 401.721 364.455 401.721 375.504V471.922H401.722ZM484.079 393.574C484.079 404.668 475.053 413.693 463.959 413.693H421.761V375.504C421.761 353.405 403.782 335.426 381.683 335.426H130.317C108.218 335.426 90.239 353.405 90.239 375.504V405.035L63.871 386.333C59.357 383.131 53.103 384.196 49.902 388.709C46.701 393.222 47.765 399.477 52.278 402.678L67.808 413.693H48.04C36.946 413.693 27.921 404.668 27.921 393.574V118.426C27.921 107.332 36.946 98.307 48.04 98.307H90.239V136.416C90.239 158.56 108.254 176.575 130.398 176.575H210.967C216.501 176.575 220.987 172.089 220.987 166.555C220.987 161.021 216.501 156.535 210.967 156.535H130.398C119.304 156.535 110.279 147.509 110.279 136.415V40.159C110.279 29.065 119.304 20.04 130.398 20.04H381.602C392.696 20.04 401.722 29.065 401.722 40.159V136.416C401.722 147.51 392.696 156.536 381.602 156.536H301.034C295.501 156.536 291.014 161.022 291.014 166.556C291.014 172.09 295.5 176.576 301.034 176.576H381.602C403.746 176.576 421.762 158.561 421.762 136.417V106.967L448.129 125.669C449.888 126.917 451.913 127.517 453.917 127.517C457.055 127.517 460.145 126.047 462.098 123.293C465.3 118.78 464.236 112.525 459.722 109.324L444.192 98.309H463.959C475.053 98.309 484.079 107.334 484.079 118.428V393.574Z" fill="#A5A3EF"/>
<path d="M329.304 124.042C334.475 126.012 340.264 123.417 342.234 118.245L343.036 116.138H366.397L367.181 118.216C368.695 122.229 372.507 124.701 376.557 124.701C377.732 124.701 378.928 124.492 380.093 124.053C385.27 122.099 387.883 116.318 385.929 111.141L365.341 56.5861C365.307 56.4941 365.271 56.4031 365.233 56.3121C363.487 52.0681 359.396 49.3271 354.807 49.3271C354.804 49.3271 354.8 49.3271 354.796 49.3271C350.203 49.3311 346.111 52.0811 344.372 56.3321C344.342 56.4071 344.311 56.4831 344.283 56.5591L323.506 111.111C321.538 116.283 324.133 122.072 329.304 124.042ZM358.834 96.0981H350.668L354.77 85.3282L358.834 96.0981Z" fill="#A5A3EF"/>
<path d="M306.639 124.507C312.172 124.476 316.633 120.109 316.603 114.576C316.572 109.061 312.092 104.612 306.584 104.612C306.565 104.612 306.546 104.612 306.527 104.612C303.41 104.63 300.146 104.643 297.227 104.651V59.3462C297.227 53.8122 292.741 49.3262 287.207 49.3262C281.673 49.3262 277.187 53.8122 277.187 59.3462V114.631C277.187 119.512 280.705 123.683 285.516 124.507C286.241 124.632 300.239 124.543 306.639 124.507Z" fill="#A5A3EF"/>
<path d="M179.593 49.3272C174.059 49.3272 169.573 53.8132 169.573 59.3472V76.0442H151.322V59.3462C151.322 53.8122 146.836 49.3262 141.302 49.3262C135.768 49.3262 131.282 53.8122 131.282 59.3462V114.678C131.282 120.212 135.768 124.698 141.302 124.698C146.836 124.698 151.322 120.212 151.322 114.678V96.0832H169.573V114.678C169.573 120.212 174.059 124.698 179.593 124.698C185.127 124.698 189.613 120.212 189.613 114.678V59.3462C189.612 53.8132 185.126 49.3272 179.593 49.3272Z" fill="#A5A3EF"/>
<path d="M234.076 49.3271C213.296 49.3271 196.391 66.2332 196.391 87.0121C196.391 107.791 213.297 124.697 234.076 124.697C254.855 124.697 271.761 107.791 271.761 87.0121C271.761 66.2332 254.855 49.3271 234.076 49.3271ZM234.076 104.659C224.346 104.659 216.43 96.7431 216.43 87.0131C216.43 77.2831 224.346 69.3671 234.076 69.3671C243.806 69.3671 251.722 77.2831 251.722 87.0131C251.722 96.7431 243.806 104.659 234.076 104.659Z" fill="#A5A3EF"/>
<path d="M304.921 438.216C304.902 438.216 304.883 438.216 304.864 438.216C302.495 438.229 300.028 438.24 297.739 438.248V399.156C297.739 393.622 293.253 389.136 287.719 389.136C282.185 389.136 277.699 393.622 277.699 399.156V448.236C277.699 453.114 281.212 457.283 286.019 458.11C286.738 458.234 299.353 458.141 304.975 458.11C310.509 458.079 314.97 453.714 314.939 448.18C314.908 442.665 310.428 438.216 304.921 438.216Z" fill="#A5A3EF"/>
<path d="M265.035 438.216C265.016 438.216 264.997 438.216 264.978 438.216C262.609 438.229 260.141 438.24 257.853 438.248V399.156C257.853 393.622 253.367 389.136 247.833 389.136C242.299 389.136 237.813 393.622 237.813 399.156V448.236C237.813 453.114 241.326 457.283 246.133 458.11C246.852 458.234 259.466 458.141 265.088 458.11C270.622 458.079 275.083 453.714 275.052 448.18C275.022 442.665 270.543 438.216 265.035 438.216Z" fill="#A5A3EF"/>
<path d="M166.905 389.137C161.371 389.137 156.885 393.623 156.885 399.157V412.856H142.932V399.157C142.932 393.623 138.446 389.137 132.912 389.137C127.378 389.137 122.892 393.623 122.892 399.157V448.278C122.892 453.812 127.378 458.298 132.912 458.298C138.446 458.298 142.932 453.812 142.932 448.278V432.894H156.885V448.278C156.885 453.812 161.371 458.298 166.905 458.298C172.439 458.298 176.925 453.812 176.925 448.278V399.157C176.924 393.622 172.439 389.137 166.905 389.137Z" fill="#A5A3EF"/>
<path d="M354.526 389.137C335.458 389.137 319.946 404.65 319.946 423.717C319.946 442.784 335.459 458.297 354.526 458.297C373.594 458.297 389.106 442.784 389.106 423.717C389.106 404.65 373.594 389.137 354.526 389.137ZM354.526 438.258C346.508 438.258 339.985 431.735 339.985 423.717C339.985 415.699 346.508 409.176 354.526 409.176C362.544 409.176 369.067 415.699 369.067 423.717C369.067 431.735 362.544 438.258 354.526 438.258Z" fill="#A5A3EF"/>
<path d="M218.122 407.869C223.656 407.869 228.142 403.383 228.142 397.849C228.142 392.315 223.656 387.829 218.122 387.829H196.297C190.763 387.829 186.277 392.315 186.277 397.849V449.645C186.277 455.179 190.763 459.665 196.297 459.665H218.122C223.656 459.665 228.142 455.179 228.142 449.645C228.142 444.111 223.656 439.625 218.122 439.625H206.317V433.766H216.513C222.047 433.766 226.533 429.28 226.533 423.746C226.533 418.212 222.047 413.726 216.513 413.726H206.317V407.867H218.122V407.869Z" fill="#A5A3EF"/>
</g>
<defs>
<clipPath id="clip0_2_43">
<rect width="512" height="512" fill="white"/>
</clipPath>
</defs>
</svg>
