<svg width="512" height="512" viewBox="0 0 512 512" fill="none" xmlns="http://www.w3.org/2000/svg">
<g clip-path="url(#clip0_2_444)">
<path d="M404.218 118.266C409.741 118.266 414.218 113.789 414.218 108.266C414.218 102.743 409.741 98.2661 404.218 98.2661C398.695 98.2661 394.218 102.743 394.218 108.266C394.218 113.789 398.695 118.266 404.218 118.266Z" fill="#FFB83C"/>
<path d="M440.437 351.952C455.772 340.748 465.76 322.643 465.76 302.239C465.76 268.304 438.152 240.696 404.217 240.696C370.282 240.696 342.674 268.304 342.674 302.239C342.674 322.642 352.662 340.748 367.997 351.952C351.866 359.679 338.568 372.397 330.108 388.095C321.648 372.397 308.35 359.679 292.219 351.952C307.554 340.748 317.542 322.643 317.542 302.239C317.542 268.304 289.934 240.696 255.999 240.696C222.064 240.696 194.456 268.304 194.456 302.239C194.456 322.642 204.444 340.748 219.779 351.952C203.648 359.679 190.35 372.397 181.89 388.095C173.43 372.397 160.132 359.679 144.001 351.952C159.336 340.748 169.324 322.643 169.324 302.239C169.324 268.304 141.716 240.696 107.781 240.696C73.846 240.696 46.24 268.305 46.24 302.24C46.24 322.643 56.228 340.749 71.563 351.953C43.254 365.513 23.655 394.445 23.655 427.873V501.982C23.655 507.516 28.141 512.002 33.675 512.002H181.892H330.109H478.326C483.86 512.002 488.346 507.516 488.346 501.982V427.873C488.345 394.444 468.746 365.513 440.437 351.952ZM362.713 302.24C362.713 279.355 381.331 260.736 404.217 260.736C427.103 260.736 445.721 279.354 445.721 302.24C445.721 325.126 427.103 343.744 404.217 343.744C381.331 343.744 362.713 325.125 362.713 302.24ZM214.496 302.24C214.496 279.355 233.114 260.736 256 260.736C278.886 260.736 297.504 279.354 297.504 302.24C297.504 325.126 278.886 343.744 256 343.744C233.114 343.744 214.496 325.125 214.496 302.24ZM66.279 302.24C66.279 279.355 84.897 260.736 107.783 260.736C130.669 260.736 149.287 279.354 149.287 302.24C149.287 325.126 130.669 343.744 107.783 343.744C84.897 343.744 66.279 325.125 66.279 302.24ZM43.694 427.872C43.694 392.533 72.444 363.783 107.783 363.783C143.122 363.783 171.872 392.533 171.872 427.872V491.961H43.694V427.872ZM191.911 427.872C191.911 392.533 220.661 363.783 256 363.783C291.339 363.783 320.089 392.533 320.089 427.872V491.961H191.911V427.872ZM468.306 491.961H340.128V427.872C340.128 392.533 368.878 363.783 404.217 363.783C439.556 363.783 468.306 392.533 468.306 427.872V491.961Z" fill="#FFB83C"/>
<path d="M103.479 215.56C106.97 217.22 111.105 216.725 114.105 214.285L154.141 181.722H227.175L247.695 212.118C249.558 214.877 252.67 216.531 255.999 216.531C259.328 216.531 262.44 214.877 264.303 212.118L284.823 181.722H358.079L397.873 214.268C399.698 215.761 401.948 216.532 404.218 216.532C405.675 216.532 407.141 216.214 408.508 215.566C412.006 213.908 414.236 210.383 414.236 206.512V153.299C414.236 147.765 409.75 143.279 404.216 143.279C398.682 143.279 394.196 147.765 394.196 153.299V185.373L368 163.947C366.21 162.483 363.969 161.683 361.657 161.683H279.5C276.171 161.683 273.059 163.337 271.196 166.096L256 188.605L240.805 166.097C238.942 163.337 235.83 161.684 232.501 161.684H150.582C148.279 161.684 146.046 162.478 144.26 163.931L117.804 185.449V42.793C117.804 30.247 128.011 20.039 140.558 20.039H371.445C383.991 20.039 394.199 30.246 394.199 42.793V63.374C394.199 68.908 398.685 73.394 404.219 73.394C409.753 73.394 414.239 68.908 414.239 63.374V42.793C414.237 19.197 395.04 0 371.444 0H140.556C116.96 0 97.7631 19.197 97.7631 42.793V206.512C97.7631 210.378 99.9881 213.9 103.479 215.56Z" fill="#FFB83C"/>
<path d="M145.459 86.4169C145.459 102.991 158.943 116.476 175.518 116.476C192.093 116.476 205.577 102.992 205.577 86.4169C205.577 69.8419 192.093 56.3579 175.518 56.3579C158.943 56.3579 145.459 69.8419 145.459 86.4169ZM185.538 86.4169C185.538 91.9419 181.043 96.4369 175.518 96.4369C169.993 96.4369 165.498 91.9419 165.498 86.4169C165.498 80.8919 169.993 76.3969 175.518 76.3969C181.043 76.3969 185.538 80.8919 185.538 86.4169Z" fill="#FFB83C"/>
<path d="M225.941 86.4169C225.941 102.991 239.425 116.476 256 116.476C272.575 116.476 286.059 102.992 286.059 86.4169C286.059 69.8419 272.574 56.3579 256 56.3579C239.426 56.3579 225.941 69.8419 225.941 86.4169ZM266.02 86.4169C266.02 91.9419 261.525 96.4369 256 96.4369C250.475 96.4369 245.98 91.9419 245.98 86.4169C245.98 80.8919 250.475 76.3969 256 76.3969C261.525 76.3969 266.02 80.8919 266.02 86.4169Z" fill="#FFB83C"/>
<path d="M306.423 86.4169C306.423 102.991 319.907 116.476 336.482 116.476C353.057 116.476 366.541 102.992 366.541 86.4169C366.541 69.8419 353.057 56.3579 336.482 56.3579C319.907 56.3579 306.423 69.8419 306.423 86.4169ZM346.501 86.4169C346.501 91.9419 342.006 96.4369 336.481 96.4369C330.956 96.4369 326.461 91.9419 326.461 86.4169C326.461 80.8919 330.956 76.3969 336.481 76.3969C342.007 76.3969 346.501 80.8919 346.501 86.4169Z" fill="#FFB83C"/>
</g>
<defs>
<clipPath id="clip0_2_444">
<rect width="512" height="512" fill="white"/>
</clipPath>
</defs>
</svg>
