<svg width="370" height="370" viewBox="0 0 370 370" fill="none" xmlns="http://www.w3.org/2000/svg">
<circle cx="185" cy="185" r="185" fill="#DFFFEC"/>
<path d="M70.6 184.2C70.6 161.133 74.7333 143.067 83 130C91.4 116.933 105.267 110.4 124.6 110.4C143.933 110.4 157.733 116.933 166 130C174.4 143.067 178.6 161.133 178.6 184.2C178.6 207.4 174.4 225.6 166 238.8C157.733 252 143.933 258.6 124.6 258.6C105.267 258.6 91.4 252 83 238.8C74.7333 225.6 70.6 207.4 70.6 184.2ZM151 184.2C151 174.333 150.333 166.067 149 159.4C147.8 152.6 145.267 147.067 141.4 142.8C137.667 138.533 132.067 136.4 124.6 136.4C117.133 136.4 111.467 138.533 107.6 142.8C103.867 147.067 101.333 152.6 100 159.4C98.8 166.067 98.2 174.333 98.2 184.2C98.2 194.333 98.8 202.867 100 209.8C101.2 216.6 103.733 222.133 107.6 226.4C111.467 230.533 117.133 232.6 124.6 232.6C132.067 232.6 137.733 230.533 141.6 226.4C145.467 222.133 148 216.6 149.2 209.8C150.4 202.867 151 194.333 151 184.2ZM200.297 151.6C200.964 138.267 205.63 128 214.297 120.8C223.097 113.467 234.63 109.8 248.897 109.8C258.63 109.8 266.964 111.533 273.897 115C280.83 118.333 286.03 122.933 289.497 128.8C293.097 134.533 294.897 141.067 294.897 148.4C294.897 156.8 292.697 163.933 288.297 169.8C284.03 175.533 278.897 179.4 272.897 181.4V182.2C280.63 184.6 286.63 188.867 290.897 195C295.297 201.133 297.497 209 297.497 218.6C297.497 226.6 295.63 233.733 291.897 240C288.297 246.267 282.897 251.2 275.697 254.8C268.63 258.267 260.097 260 250.097 260C235.03 260 222.764 256.2 213.297 248.6C203.83 241 198.83 229.8 198.297 215H225.497C225.764 221.533 227.964 226.8 232.097 230.8C236.364 234.667 242.164 236.6 249.497 236.6C256.297 236.6 261.497 234.733 265.097 231C268.83 227.133 270.697 222.2 270.697 216.2C270.697 208.2 268.164 202.467 263.097 199C258.03 195.533 250.164 193.8 239.497 193.8H233.697V170.8H239.497C258.43 170.8 267.897 164.467 267.897 151.8C267.897 146.067 266.164 141.6 262.697 138.4C259.364 135.2 254.497 133.6 248.097 133.6C241.83 133.6 236.964 135.333 233.497 138.8C230.164 142.133 228.23 146.4 227.697 151.6H200.297Z" fill="#00C5B5"/>
</svg>
