<svg width="370" height="370" viewBox="0 0 370 370" fill="none" xmlns="http://www.w3.org/2000/svg">
<circle cx="185" cy="185" r="185" fill="#DFFFEC"/>
<path d="M71.6 184.2C71.6 161.133 75.7333 143.067 84 130C92.4 116.933 106.267 110.4 125.6 110.4C144.933 110.4 158.733 116.933 167 130C175.4 143.067 179.6 161.133 179.6 184.2C179.6 207.4 175.4 225.6 167 238.8C158.733 252 144.933 258.6 125.6 258.6C106.267 258.6 92.4 252 84 238.8C75.7333 225.6 71.6 207.4 71.6 184.2ZM152 184.2C152 174.333 151.333 166.067 150 159.4C148.8 152.6 146.267 147.067 142.4 142.8C138.667 138.533 133.067 136.4 125.6 136.4C118.133 136.4 112.467 138.533 108.6 142.8C104.867 147.067 102.333 152.6 101 159.4C99.8 166.067 99.2 174.333 99.2 184.2C99.2 194.333 99.8 202.867 101 209.8C102.2 216.6 104.733 222.133 108.6 226.4C112.467 230.533 118.133 232.6 125.6 232.6C133.067 232.6 138.733 230.533 142.6 226.4C146.467 222.133 149 216.6 150.2 209.8C151.4 202.867 152 194.333 152 184.2ZM209.697 227.4C222.497 216.733 232.697 207.867 240.297 200.8C247.897 193.6 254.23 186.133 259.297 178.4C264.364 170.667 266.897 163.067 266.897 155.6C266.897 148.8 265.297 143.467 262.097 139.6C258.897 135.733 253.964 133.8 247.297 133.8C240.63 133.8 235.497 136.067 231.897 140.6C228.297 145 226.43 151.067 226.297 158.8H199.097C199.63 142.8 204.364 130.667 213.297 122.4C222.364 114.133 233.83 110 247.697 110C262.897 110 274.564 114.067 282.697 122.2C290.83 130.2 294.897 140.8 294.897 154C294.897 164.4 292.097 174.333 286.497 183.8C280.897 193.267 274.497 201.533 267.297 208.6C260.097 215.533 250.697 223.933 239.097 233.8H298.097V257H199.297V236.2L209.697 227.4Z" fill="#00C5B5"/>
</svg>
