<svg width="512" height="512" viewBox="0 0 512 512" fill="none" xmlns="http://www.w3.org/2000/svg">
<g clip-path="url(#clip0_2_35)">
<path d="M256 65.494C261.523 65.494 266 61.0169 266 55.494C266 49.9712 261.523 45.494 256 45.494C250.477 45.494 246 49.9712 246 55.494C246 61.0169 250.477 65.494 256 65.494Z" fill="#00C5B5"/>
<path d="M215.922 340.205C221.456 340.205 225.942 335.719 225.942 330.185C225.942 324.651 221.456 320.165 215.922 320.165C210.388 320.165 205.902 324.651 205.902 330.185C205.902 335.719 210.388 340.205 215.922 340.205Z" fill="#00C5B5"/>
<path d="M256 340.205C261.534 340.205 266.02 335.719 266.02 330.185C266.02 324.651 261.534 320.165 256 320.165C250.466 320.165 245.98 324.651 245.98 330.185C245.98 335.719 250.466 340.205 256 340.205Z" fill="#00C5B5"/>
<path d="M296.078 340.205C301.612 340.205 306.098 335.719 306.098 330.185C306.098 324.651 301.612 320.165 296.078 320.165C290.544 320.165 286.058 324.651 286.058 330.185C286.058 335.719 290.544 340.205 296.078 340.205Z" fill="#00C5B5"/>
<path d="M465.015 276.952V254.476C465.015 198.645 443.276 146.159 403.802 106.685C375.876 78.775 340.883 59.413 302.605 50.694C297.205 49.466 291.839 52.843 290.61 58.238C289.381 63.634 292.759 69.004 298.154 70.233C332.749 78.114 364.383 95.62 389.634 120.858C425.322 156.546 444.976 203.999 444.976 254.477V266.719C439.461 264.624 433.711 262.972 427.758 261.826C424.492 261.197 421.191 261.23 418.024 261.876V253.556C418.024 210.277 401.173 169.592 370.574 138.992C339.96 108.396 299.269 91.545 255.995 91.545C166.662 91.545 93.985 164.223 93.985 253.555V261.878C90.815 261.231 87.512 261.196 84.242 261.825C78.292 262.97 72.545 264.621 67.033 266.714V254.475C67.033 211.408 81.905 169.276 108.909 135.841C135.526 102.885 172.79 79.584 213.835 70.232C219.23 69.003 222.608 63.633 221.378 58.237C220.148 52.841 214.774 49.464 209.383 50.694C163.97 61.041 122.751 86.809 93.319 123.25C63.446 160.238 46.994 206.841 46.994 254.475V276.945C18.421 295.717 0 328.052 0 363.945C0 413.726 35.429 456.673 84.243 466.065C99.472 468.997 114.016 456.936 114.016 441.458L114.025 253.556C114.025 175.273 177.713 111.585 255.996 111.585C293.92 111.585 329.58 126.352 356.407 153.165C383.22 179.977 397.986 215.63 397.986 253.556V441.458C397.986 456.939 412.529 468.993 427.758 466.065C476.571 456.673 512 413.726 512 363.945C512 328.056 493.583 295.724 465.015 276.952ZM93.976 441.457C93.976 444.561 91.085 446.97 88.028 446.386C48.632 438.806 20.039 404.135 20.039 363.944C20.039 323.753 48.632 289.081 88.029 281.502C91.086 280.916 93.976 283.33 93.976 286.431V441.457ZM423.972 446.387C420.916 446.971 418.024 444.561 418.024 441.458C418.024 441.458 418.024 289.495 418.024 287.269C418.024 283.939 420.208 280.782 423.972 281.503C463.368 289.082 491.961 323.754 491.961 363.945C491.961 404.135 463.367 438.807 423.972 446.387Z" fill="#00C5B5"/>
<path d="M368.272 363.953V292.835C368.272 275.04 353.795 260.563 336 260.563H176.274C158.479 260.563 144.002 275.04 144.002 292.835V363.348L128.024 398.685C126.386 402.309 127.046 406.559 129.706 409.516C132.366 412.473 136.523 413.576 140.3 412.326L178.235 399.778H333.764L371.699 412.326C379.826 415.013 387.494 406.467 383.975 398.685L368.272 363.953ZM338.525 380.245C337.51 379.909 336.448 379.738 335.378 379.738H176.621C175.552 379.738 174.489 379.909 173.474 380.245L155.695 386.126L163.151 369.636C163.738 368.339 164.041 366.932 164.041 365.508V292.835C164.041 286.089 169.529 280.602 176.274 280.602H336C342.745 280.602 348.233 286.09 348.233 292.835V366.113C348.233 367.537 348.536 368.944 349.123 370.241L356.305 386.126L338.525 380.245Z" fill="#00C5B5"/>
</g>
<defs>
<clipPath id="clip0_2_35">
<rect width="512" height="512" fill="white"/>
</clipPath>
</defs>
</svg>
