<svg width="512" height="512" viewBox="0 0 512 512" fill="none" xmlns="http://www.w3.org/2000/svg">
<g clip-path="url(#clip0_2_106)">
<path d="M507.7 416.87C513.47 429.77 507.5 445.33 494.62 451.09L405.69 490.82C392.8 496.59 377.22 490.61 371.47 477.74L363.12 459.04C353.38 456.08 336.19 449.4 318.88 435.66V471.92C318.88 494.02 300.9 512 278.8 512H42.17C20.07 512 2.08997 494.02 2.08997 471.92V40.08C2.08997 17.98 20.07 0 42.17 0H278.8C300.9 0 318.88 17.98 318.88 40.08V189.51C325.33 186.33 332.73 185.36 339.77 186.88C342.87 187.55 345.87 188.67 348.64 190.21C349.08 190.45 350.49 191.31 350.77 191.49C350.85 191.37 351.7 190.12 352.01 189.71C352.82 188.6 353.71 187.55 354.67 186.57C358.73 182.35 363.95 179.29 369.6 177.74C381.6 174.46 394.95 178.56 402.78 188.28C405.91 184.66 409.84 181.76 414.2 179.81C429.91 172.79 449.21 179.49 456.3 195.36L499.44 292.7C513.75 324.73 512.79 360.92 496.92 392.73L507.7 416.87ZM489.53 429.53C490.09 428.07 490.05 426.47 489.41 425.04L476.65 396.48C475.37 393.61 475.5 390.31 477.02 387.56C492.05 360.25 493.55 328.64 481.13 300.84L437.99 203.51C435.36 197.61 428.07 195.56 422.38 198.11C416.54 200.71 413.46 207.48 416.04 213.46L428.39 241.89C430.74 247.28 428.17 254.28 422.59 256.38C417.68 258.22 412.04 255.86 409.91 251.07L388.68 203.3C385.57 196.33 376.35 194.77 370.49 199.24C367.67 201.39 365.84 204.77 365.74 208.33C365.67 210.97 366.72 213.2 367.76 215.53L387.93 260.94C390.25 266.16 387.66 271.97 382.59 274.26C377.52 276.55 371.42 274.52 369.09 269.33L344.08 213.35C341.41 207.37 334.18 204.59 328.17 207.27C322.19 209.94 319.41 217.18 322.09 223.18L347.1 279.16C349.43 284.36 346.86 290.22 341.78 292.49C336.69 294.77 330.6 292.78 328.27 287.57L276.53 171.77C275.3 169.02 273.03 166.92 270.13 165.85C267.12 164.74 263.84 164.86 260.86 166.2C254.79 168.91 251.96 175.82 254.54 181.6L326.02 341.56C328.12 346.27 326.2 351.99 321.66 354.45C316.59 357.2 310.07 355 307.72 349.74L272.17 270.16C269.18 270.3 264.56 271.59 260.62 274.63C254.25 280.32 248.21 289.38 255 300.53C255.07 300.63 255.13 300.74 255.19 300.85L306.28 392.14C328.88 427.65 362.87 438.46 372.77 440.94C375.76 441.68 378.24 443.76 379.49 446.57L389.76 469.56C391.07 472.48 394.6 473.83 397.52 472.53L486.45 432.79C487.88 432.15 488.97 430.99 489.53 429.53V429.53ZM298.84 471.92V453.89H22.13V471.92C22.13 482.97 31.12 491.96 42.17 491.96H278.8C289.85 491.96 298.84 482.97 298.84 471.92V471.92ZM298.84 433.85V415.95C295.49 411.88 292.26 407.45 289.21 402.63C289.11 402.48 289.02 402.32 288.93 402.16L262.77 355.42V381.97C262.77 397.74 249.94 410.57 234.17 410.57H102.78L71.38 420.96C63.25 423.64 55.58 415.1 59.1 407.32L72.29 378.15V319.66C72.29 303.9 85.11 291.07 100.88 291.07H231.96C231.93 283.06 234.67 275.65 238.86 269.36H22.13V433.85H298.84ZM298.84 172.58V70.64H22.13V249.32H262.85L241.6 201.76C239.42 213.59 230.15 226.61 212.45 227.34C205.36 227.34 197.82 226.02 192.35 223.35C189.33 221.88 186.38 220.02 184.21 217.41V217.4C180.56 212.99 180.94 206.41 185.59 202.84C189.82 199.59 195.69 200.35 199.25 204.2C200.04 204.84 203.99 207.66 212.81 207.29C217.01 207.12 219.34 205.5 220.84 201.7C222.21 198.25 222.18 194.53 222.18 194.5C222.18 194.36 222.17 193.4 222.17 193.4C218.08 195.2 213.56 196.2 208.81 196.2C190.38 196.2 175.39 181.21 175.39 162.79C175.39 144.36 190.38 129.38 208.81 129.38C214.4 129.38 219.68 130.77 224.32 133.21C226.15 130.88 229 129.38 232.19 129.38C237.73 129.38 242.21 133.86 242.21 139.4V155.35C245.08 152.29 248.6 149.72 252.68 147.9C260.48 144.42 269.14 144.12 277.06 147.05C285.05 149.98 291.37 155.86 294.83 163.6L298.84 172.58ZM298.84 50.6V40.08C298.84 29.03 289.85 20.04 278.8 20.04H42.17C31.12 20.04 22.13 29.03 22.13 40.08V50.6H298.84ZM242.73 381.98V319.66C242.73 319.65 242.73 319.63 242.73 319.61L238.7 312.41C237.35 311.57 235.79 311.11 234.17 311.11H100.87C96.16 311.11 92.33 314.95 92.33 319.67V380.31C92.33 381.74 92.02 383.14 91.44 384.44L86.77 394.76L98.02 391.04C99.03 390.7 100.1 390.53 101.16 390.53H234.17C238.89 390.53 242.73 386.69 242.73 381.98V381.98ZM222.18 162.91V162.67C222.11 155.35 216.14 149.42 208.81 149.42C201.43 149.42 195.43 155.42 195.43 162.79C195.43 170.16 201.43 176.16 208.81 176.16C216.14 176.16 222.11 170.23 222.18 162.91Z" fill="#A5A3EF"/>
<path d="M208.81 357.67C214.333 357.67 218.81 353.193 218.81 347.67C218.81 342.147 214.333 337.67 208.81 337.67C203.287 337.67 198.81 342.147 198.81 347.67C198.81 353.193 203.287 357.67 208.81 357.67Z" fill="#A5A3EF"/>
<path d="M212.45 227.34C212.98 227.34 212.44 227.35 212.27 227.35C212.31 227.35 212.37 227.34 212.45 227.34Z" fill="#A5A3EF"/>
<path d="M163.88 339.07C169.42 339.07 173.9 343.55 173.9 349.09C173.9 354.62 169.42 359.11 163.88 359.11H122.19C116.65 359.11 112.17 354.62 112.17 349.09C112.17 343.55 116.65 339.07 122.19 339.07H163.88Z" fill="#A5A3EF"/>
<path d="M160.49 483.59C166.013 483.59 170.49 479.113 170.49 473.59C170.49 468.067 166.013 463.59 160.49 463.59C154.967 463.59 150.49 468.067 150.49 473.59C150.49 479.113 154.967 483.59 160.49 483.59Z" fill="#A5A3EF"/>
<path d="M151.58 135.75C157.11 135.75 161.6 140.24 161.6 145.78C161.6 177.09 142.16 198.95 114.32 198.95C85 198.95 61.15 175.1 61.15 145.78C61.15 116.45 85 92.6 114.32 92.6C124.98 92.6 135.26 95.74 144.06 101.69C148.65 104.78 149.85 111.01 146.76 115.6C143.66 120.18 137.43 121.39 132.85 118.29C127.37 114.59 120.96 112.64 114.32 112.64C96.05 112.64 81.19 127.5 81.19 145.77C81.19 164.05 96.05 178.91 114.32 178.91C130.1 178.91 137.89 167.92 140.51 155.79H125.76C120.22 155.79 115.74 151.31 115.74 145.77C115.74 140.24 120.23 135.75 125.76 135.75H151.58Z" fill="#A5A3EF"/>
</g>
<defs>
<clipPath id="clip0_2_106">
<rect width="512" height="512" fill="white"/>
</clipPath>
</defs>
</svg>
