<svg width="368" height="512" viewBox="0 0 368 512" fill="none" xmlns="http://www.w3.org/2000/svg">
<path d="M163.287 418.427C168.81 418.427 173.287 413.95 173.287 408.427C173.287 402.905 168.81 398.427 163.287 398.427C157.764 398.427 153.287 402.905 153.287 408.427C153.287 413.95 157.764 418.427 163.287 418.427Z" fill="#79C9F9"/>
<path d="M352.573 295.433C347.505 291.385 341.657 288.702 335.506 287.46V270.36C335.506 261.067 330.407 252.59 322.199 248.235C313.991 243.882 304.111 244.414 296.39 249.642L285.627 256.984C276.265 240.366 261.354 227.617 243.846 220.758C247.536 218.735 251.137 216.516 254.624 214.084C271.672 202.196 285.12 186.242 293.873 167.618C294.251 167.631 294.629 167.638 295.008 167.638C313.356 167.638 328.283 152.711 328.283 134.364C328.283 119.146 318.014 106.281 304.04 102.336C300.614 75.8734 288.403 52.2604 270.502 34.4014C255.608 18.3434 231.794 2.09935 195.786 0.29335C185.69 -0.41865 175.503 0.16535 165.558 2.04635C132.107 7.72135 110.825 24.9184 98.251 39.7694C84.238 56.3223 78.298 72.9224 76.683 78.0934C73.925 85.8264 71.947 93.9363 70.86 102.336C56.886 106.281 46.618 119.146 46.618 134.364C46.618 152.711 61.545 167.638 79.892 167.638C80.271 167.638 80.649 167.631 81.027 167.618C89.779 186.242 103.228 202.195 120.276 214.084C123.393 216.257 126.604 218.25 129.883 220.097C111.639 226.774 96.055 239.802 86.379 256.946L75.566 249.623C67.871 244.414 57.994 243.88 49.785 248.236C41.577 252.591 36.477 261.069 36.477 270.361V286.55C28.695 287.241 21.215 290.199 14.948 295.242C5.448 302.887 0 314.265 0 326.459V448.723C0 460.466 4.925 481.256 37.906 488.557C38.01 488.58 161.432 511.827 161.432 511.827C162.044 511.942 162.664 512 163.286 512H209.365C209.939 512 210.514 511.95 211.08 511.852C211.08 511.852 329.406 491.294 329.469 491.283C352.299 486.866 367.637 470.837 367.637 451.395V326.744C367.637 314.492 362.147 303.08 352.573 295.433ZM307.655 266.216C310.946 263.988 315.468 266.407 315.468 270.361V288.351L256.995 300.773L307.655 266.216ZM260.531 53.5294C266.428 60.9633 270.623 68.4854 273.482 74.6153C246.874 70.4663 227.969 56.7454 227.766 56.5954C224.298 54.0134 219.565 53.9474 216.027 56.4294C215.604 56.7264 174.977 84.4664 99.998 74.3614C113.571 46.9684 139.62 26.9523 170.5 21.5183C178.229 20.3423 186.091 19.9324 193.902 20.2563C217.954 21.8363 239.742 32.1794 255.973 48.1954C257.536 49.8983 259.059 51.6724 260.531 53.5294ZM96.483 152.837C95.423 150.104 93.135 147.913 90.359 146.973C88.74 146.424 87.02 146.319 85.338 146.605C83.516 146.915 81.762 147.599 79.892 147.599C72.595 147.599 66.657 141.662 66.657 134.364C66.657 127.101 72.539 121.185 79.789 121.129C79.935 121.134 80.008 121.134 80.093 121.134C85.386 121.134 89.778 117.008 90.092 111.707C90.461 105.481 91.418 99.4213 92.897 93.5743C107.086 95.7173 120.23 96.6334 132.279 96.6324C178.975 96.6304 209.348 83.1494 221.537 76.4594C231.637 82.6254 254.151 94.2214 282.509 95.6754C283.7 100.869 284.481 106.224 284.806 111.706C285.12 117.006 289.512 121.133 294.805 121.133C294.885 121.134 294.951 121.134 295.107 121.128C302.358 121.183 308.242 127.099 308.242 134.363C308.242 141.66 302.305 147.598 295.006 147.598C291.458 147.598 288.443 145.783 284.861 146.867C281.931 147.754 279.523 149.981 278.415 152.836C271.379 170.974 259.188 186.469 243.16 197.646C226.773 209.074 207.508 215.114 187.449 215.114C167.39 215.114 148.125 209.074 131.738 197.646C115.71 186.47 103.52 170.975 96.483 152.837ZM157.857 235.158H214.133C237.237 235.158 258.402 248.221 268.987 268.335L206.274 311.114H166.361L103.049 268.236C113.657 248.181 134.8 235.158 157.857 235.158ZM59.176 265.938C59.975 265.512 62.08 264.691 64.329 266.216L85.106 280.287C85.113 280.291 85.12 280.297 85.127 280.301L115.925 301.159L56.516 288.935V270.361C56.516 267.643 58.376 266.363 59.176 265.938ZM20.038 448.723V326.459C20.038 320.363 22.762 314.675 27.511 310.853C32.261 307.031 38.401 305.587 44.353 306.89C44.38 306.896 153.267 329.302 153.267 329.302V363.245C153.267 368.778 157.753 373.265 163.287 373.265C168.82 373.265 173.307 368.779 173.307 363.245V331.154H199.346V491.961H173.307V453.397C173.307 447.864 168.821 443.377 163.287 443.377C157.754 443.377 153.267 447.863 153.267 453.397V489.898L42.086 468.958C20.039 464.025 20.038 452.513 20.038 448.723ZM347.598 451.394C347.598 463.147 335.851 469.612 325.753 471.591L219.385 490.07V329.248C219.385 329.248 323.093 307.217 323.138 307.207C329.11 305.854 335.282 307.27 340.068 311.091C344.854 314.914 347.598 320.618 347.598 326.744V451.394Z" fill="#79C9F9"/>
<path d="M311.885 353.461L249.278 367.275C244.015 368.436 240.564 373.74 241.613 379.02C242.692 384.45 248.187 388.036 253.595 386.843L316.202 373.029C321.606 371.837 325.02 366.49 323.827 361.087C322.635 355.681 317.286 352.267 311.885 353.461Z" fill="#79C9F9"/>
<path d="M311.884 398.643L249.277 412.458C244.014 413.619 240.564 418.925 241.613 424.204C242.692 429.634 248.188 433.219 253.596 432.026L316.203 418.211C321.606 417.019 325.02 411.672 323.827 406.268C322.635 400.864 317.283 397.448 311.884 398.643Z" fill="#79C9F9"/>
<path d="M156.273 142.013C160.995 144.898 167.162 143.405 170.045 138.681C172.929 133.958 171.437 127.793 166.713 124.909C140.443 108.873 115.184 124.303 114.122 124.967C109.806 127.668 108.17 133.377 110.435 137.943C113.023 143.158 119.739 145.094 124.688 141.995C125.335 141.604 140.724 132.524 156.273 142.013Z" fill="#79C9F9"/>
<path d="M211.13 143.516C212.934 143.516 214.762 143.026 216.409 141.994C217.056 141.603 232.445 132.523 247.994 142.013C252.715 144.898 258.882 143.405 261.766 138.681C264.65 133.958 263.158 127.793 258.434 124.909C232.164 108.873 206.906 124.303 205.843 124.967C202.026 127.356 200.206 132.263 201.592 136.554C202.903 140.614 206.86 143.516 211.13 143.516Z" fill="#79C9F9"/>
<path d="M159.226 175.933C156.519 180.759 158.237 186.866 163.063 189.574C171.244 194.163 179.315 195.694 186.451 195.694C200.336 195.694 210.668 189.892 211.312 189.521C216.109 186.763 217.762 180.637 215.004 175.841C212.247 171.044 206.121 169.392 201.324 172.149C201.184 172.229 186.923 179.981 172.867 172.096C168.042 169.389 161.934 171.105 159.226 175.933Z" fill="#79C9F9"/>
</svg>
