<svg width="430" height="512" viewBox="0 0 430 512" fill="none" xmlns="http://www.w3.org/2000/svg">
<path d="M405.078 443.153C407.652 439.239 408.449 434.436 407.197 429.761C405.639 423.949 401.24 419.548 395.428 417.992L379.578 413.745C387.183 397.715 392.212 380.701 394.553 363.006C394.555 362.994 394.556 362.981 394.557 362.969C394.561 362.937 394.564 362.905 394.568 362.873C395.551 355.434 396.051 347.834 396.051 340.28C396.051 299.304 381.515 259.956 355.027 228.903C357.812 224.507 359.386 219.328 359.386 213.835V138.338L413.233 117.183C423.408 113.185 429.729 104.327 429.729 94.0638C429.729 83.8018 423.409 74.9437 413.262 70.9577L374.759 55.6897C369.6 53.6457 363.764 56.1677 361.719 61.3257C359.674 66.4827 362.198 72.3207 367.355 74.3657L405.887 89.6427C408.273 90.5797 409.64 92.1907 409.64 94.0617C409.64 95.9347 408.273 97.5448 405.888 98.4818L230.284 167.473C228.391 168.219 226.302 168.219 224.407 167.473L48.803 98.4818C44.788 95.5348 44.788 92.5887 48.803 89.6427L224.407 20.6528C226.3 19.9067 228.389 19.9067 230.284 20.6528L282.389 41.1227C287.553 43.1537 293.383 40.6097 295.411 35.4457C297.44 30.2827 294.898 24.4527 289.734 22.4237L237.63 1.95375C230.997 -0.65125 223.692 -0.65125 217.061 1.95375L41.457 70.9437C32.224 74.5707 26.161 83.1457 25.742 92.9777C25.721 93.2447 25.701 93.5117 25.701 93.7837V152.542C10.895 156.683 0 170.287 0 186.397V217.913C0 231.76 11.265 243.025 25.112 243.025H45.207C59.054 243.025 70.319 231.76 70.319 217.913V186.397C70.319 170.716 59.997 157.404 45.79 152.887V118.885L93.803 137.748V213.245C93.803 217.626 94.796 221.813 96.61 225.56C96.362 225.788 96.123 226.03 95.895 226.287C67.982 257.719 52.61 298.202 52.61 340.28C52.61 379.998 66.486 418.73 91.684 449.344C116.538 479.541 151.199 500.52 189.277 508.416C200.728 510.795 212.522 512.001 224.33 512.001C265.885 512.001 304.924 497.472 335.972 470.766L337.384 476.036C338.941 481.847 343.339 486.247 349.15 487.804C353.827 489.057 358.629 488.259 362.544 485.687L377.592 500.735C384.34 507.481 395.416 507.206 401.803 500.022L419.677 479.907C425.522 473.33 425.227 463.304 419.006 457.082L405.078 443.153ZM50.23 186.396V217.912C50.23 220.681 47.977 222.934 45.208 222.934H25.113C22.344 222.934 20.091 220.681 20.091 217.912V186.396C20.091 178.087 26.85 171.329 35.163 171.329C43.471 171.328 50.23 178.087 50.23 186.396ZM375.467 352.324L318.357 356.816C316.377 356.971 314.488 357.711 312.928 358.939L289.995 377.006L271.659 368.609L271.116 344.248L294.69 333.494C298.648 331.689 300.995 327.541 300.501 323.218L296.993 292.453L346.018 249.807C365.413 275.857 375.96 307.478 375.96 340.28C375.962 344.295 375.783 348.32 375.467 352.324ZM217.06 186.172C223.917 188.777 230.773 188.777 237.629 186.172L339.296 146.229V213.834C339.296 217.16 337.295 220.096 334.199 221.313L230.282 262.139C228.389 262.885 226.3 262.885 224.405 262.139L118.989 220.723C115.893 219.507 113.892 216.571 113.892 213.244V145.64L217.06 186.172ZM74.02 320.333L76.18 324.03C76.501 324.579 76.874 325.097 77.292 325.576L98.303 349.596L97.726 385.902L88.65 407.945C78.251 387.062 72.7 363.869 72.7 340.279C72.701 333.571 73.15 326.91 74.02 320.333ZM107.196 436.575C105.246 434.206 103.378 431.779 101.583 429.304L117.029 391.791C117.508 390.628 117.764 389.384 117.784 388.126L118.452 346.051C118.491 343.563 117.606 341.15 115.968 339.278L93.042 313.069L80.637 291.841C87.072 272.737 97.301 254.961 110.918 239.628C111.029 239.503 111.124 239.37 111.228 239.241C111.369 239.299 111.503 239.367 111.645 239.423L174.859 264.259L166.11 281.49C164.356 284.943 164.745 289.096 167.107 292.165L184.818 315.174L177.598 335.771L146.722 344.506C142.557 345.684 139.616 349.398 139.422 353.722L137.92 387.283C137.803 389.891 138.707 392.443 140.439 394.397L169.503 427.175L164.372 456.434C164.038 458.337 164.26 460.295 165.012 462.075L173.983 483.331C148.085 474.189 124.845 458.017 107.196 436.575ZM224.331 491.91C215.644 491.91 206.973 491.161 198.477 489.702L184.67 456.989L190.128 425.871C190.657 422.856 189.782 419.763 187.75 417.471L158.171 384.113L159.167 361.861L188.086 353.68C191.232 352.79 193.749 350.423 194.83 347.337L205.576 316.68C206.7 313.476 206.128 309.921 204.056 307.231L186.891 284.931L193.641 271.636L217.058 280.836C220.375 282.139 223.859 282.79 227.343 282.79C230.827 282.79 234.312 282.139 237.627 280.836L314.413 250.668L279.82 280.76C277.324 282.931 276.058 286.191 276.433 289.477L279.712 318.242L256.755 328.716C253.102 330.382 250.792 334.064 250.882 338.078L251.713 375.344C251.798 379.191 254.074 382.651 257.573 384.253L287.208 397.823C288.544 398.435 289.97 398.735 291.389 398.735C293.605 398.735 295.802 398.002 297.606 396.581L322.965 376.602L372.469 372.708C369.773 385.111 365.539 397.072 359.802 408.444L343.98 404.205C338.171 402.647 332.16 404.258 327.905 408.512C323.65 412.766 322.04 418.777 323.597 424.589L330.107 448.883C301.657 476.668 264.314 491.91 224.331 491.91ZM389.214 483.943L374.562 469.291C371.418 466.148 367.238 464.417 362.794 464.417C360.23 464.417 357.756 464.992 355.517 466.082L344.551 425.159L362.305 429.916C362.341 429.926 362.376 429.936 362.412 429.945L385.475 436.124C384.384 438.364 383.809 440.837 383.809 443.401C383.809 447.847 385.54 452.026 388.683 455.17L402.503 468.99L389.214 483.943Z" fill="#FFB83C"/>
<path d="M323.907 59.0807C328.97 61.2837 334.86 58.9667 337.064 53.9037C339.267 48.8407 336.95 42.9507 331.887 40.7477C326.824 38.5447 320.934 40.8617 318.73 45.9247C316.526 50.9867 318.844 56.8777 323.907 59.0807Z" fill="#FFB83C"/>
</svg>
