<svg width="512" height="512" viewBox="0 0 512 512" fill="none" xmlns="http://www.w3.org/2000/svg">
<path d="M138.209 220.508C143.732 220.508 148.209 216.031 148.209 210.508C148.209 204.985 143.732 200.508 138.209 200.508C132.686 200.508 128.209 204.985 128.209 210.508C128.209 216.031 132.687 220.508 138.209 220.508Z" fill="#00C5B5"/>
<path d="M471.922 0H314.31C292.211 0 274.232 17.979 274.232 40.078V102.878H168.385C146.973 102.878 128.19 120.251 128.19 140.055V165.069C128.19 170.602 132.676 175.089 138.21 175.089C143.744 175.089 148.23 170.603 148.23 165.069V140.055C148.23 132.129 157.034 122.917 168.386 122.917H274.233V162.091H204.867C199.333 162.091 194.847 166.577 194.847 172.111C194.847 177.644 199.333 182.131 204.867 182.131H274.233V197.69C274.233 204.995 276.207 211.844 279.636 217.748H204.867C199.333 217.748 194.847 222.234 194.847 227.768C194.847 233.301 199.333 237.788 204.867 237.788L364.099 237.769V368.119C364.099 379.232 355.057 388.275 343.943 388.275L237.768 388.274V349.101H307.461C312.995 349.101 317.481 344.615 317.481 339.081C317.481 333.547 312.995 329.061 307.461 329.061H237.768V313.649C237.768 306.324 235.783 299.458 232.338 293.543L307.474 293.443C313.008 293.435 317.488 288.944 317.48 283.41C317.473 277.882 312.988 273.404 307.461 273.404C307.457 273.404 307.452 273.404 307.447 273.404L182.008 273.57H148.228V255.595C148.228 250.062 143.742 245.575 138.208 245.575C132.674 245.575 128.188 250.061 128.188 255.595V273.57H40.078C17.979 273.57 0 291.55 0 313.648V471.26C0 493.359 17.979 511.338 40.078 511.338H197.69C219.789 511.338 237.768 493.359 237.768 471.26V408.312L343.943 408.313C366.106 408.313 384.138 390.282 384.138 368.118V237.768H471.922C494.021 237.768 512 219.789 512 197.69V40.078C512 17.979 494.021 0 471.922 0ZM40.078 293.609H197.69C208.739 293.609 217.729 302.598 217.729 313.648V418.387L175.048 437.32C167.029 440.877 157.62 439.471 151.08 433.735L116.268 403.214C103.871 392.345 86.08 389.664 70.946 396.388L20.039 418.999V313.648C20.039 302.599 29.029 293.609 40.078 293.609ZM197.69 491.299H40.078C29.029 491.299 20.039 482.31 20.039 471.26V440.926L79.08 414.703C87.101 411.138 96.513 412.545 103.058 418.283L137.87 448.804C145.728 455.693 155.753 459.292 165.896 459.292C171.747 459.291 177.639 458.093 183.175 455.637L217.73 440.308V471.259C217.729 482.31 208.739 491.299 197.69 491.299ZM491.961 197.69C491.961 208.74 482.971 217.729 471.922 217.729H314.31C303.261 217.729 294.271 208.74 294.271 197.69V40.078C294.271 29.028 303.261 20.039 314.31 20.039H471.922C482.971 20.039 491.961 29.028 491.961 40.078V197.69Z" fill="#00C5B5"/>
<path d="M429.302 94.746L391.8 73.095C383.073 68.056 372.654 68.055 363.928 73.094C355.202 78.132 349.992 87.156 349.992 97.232V140.536C349.992 150.612 355.201 159.635 363.927 164.673C368.291 167.193 373.077 168.453 377.864 168.453C382.65 168.453 387.437 167.193 391.8 164.674L429.302 143.022C438.029 137.984 443.239 128.959 443.238 118.883C443.237 108.807 438.028 99.783 429.302 94.746ZM419.283 125.668L381.782 147.32C378.248 149.361 375.127 148 373.948 147.319C372.77 146.64 370.032 144.617 370.032 140.536V97.232C370.032 93.151 372.771 91.129 373.948 90.449C374.663 90.036 376.096 89.371 377.904 89.371C379.071 89.371 380.394 89.649 381.781 90.449L419.283 112.101C422.818 114.142 423.199 117.525 423.199 118.884C423.2 120.243 422.818 123.627 419.283 125.668Z" fill="#00C5B5"/>
<path d="M65.5859 371.013C82.6479 371.013 96.5279 357.132 96.5279 340.071C96.5279 323.01 82.6469 309.129 65.5859 309.129C48.5239 309.129 34.6429 323.01 34.6429 340.071C34.6429 357.132 48.5229 371.013 65.5859 371.013ZM65.5859 329.168C71.5979 329.168 76.4889 334.059 76.4889 340.071C76.4889 346.083 71.5979 350.974 65.5859 350.974C59.5739 350.974 54.6819 346.083 54.6819 340.071C54.6819 334.059 59.5729 329.168 65.5859 329.168Z" fill="#00C5B5"/>
</svg>
