<svg width="1779" height="334" viewBox="0 0 1779 334" fill="none" xmlns="http://www.w3.org/2000/svg">
<path d="M9.51562 60.3979H250.93V127.565H9.51562V60.3979Z" fill="#FFDA45"/>
<path d="M224.012 60.3975H250.931V127.565H224.012V60.3975Z" fill="#FAC800"/>
<path d="M147.95 60.3975H224.324V127.565H147.95V60.3975Z" fill="#FFF5F5"/>
<path d="M300.907 315.306H61.3505C41.7587 315.306 25.876 299.423 25.876 279.831C25.876 260.239 41.7587 244.356 61.3505 244.356H300.907V315.306Z" fill="#F0F5FA"/>
<path d="M275.867 244.357H300.908V315.305H275.867V244.357Z" fill="#E4ECF2"/>
<path d="M313.429 320.001H61.3523C39.2032 320.001 21.1826 301.981 21.1826 279.831C21.1826 257.681 39.2026 239.661 61.3523 239.661H313.429C316.022 239.661 318.124 241.763 318.124 244.356C318.124 246.949 316.022 249.051 313.429 249.051H61.3523C44.381 249.051 30.5729 262.859 30.5729 279.831C30.5729 296.802 44.3804 310.61 61.3523 310.61H313.429C316.022 310.61 318.124 312.712 318.124 315.305C318.124 317.898 316.022 320.001 313.429 320.001Z" fill="#79C9F9"/>
<path d="M300.908 272.701H107.525C104.932 272.701 102.83 270.599 102.83 268.006C102.83 265.413 104.932 263.311 107.525 263.311H300.908V272.701Z" fill="#C5D7E6"/>
<path d="M300.908 296.352H158.871C156.278 296.352 154.176 294.25 154.176 291.657C154.176 289.064 156.278 286.961 158.871 286.961H300.908V296.352Z" fill="#C5D7E6"/>
<path d="M260.755 234.993H27.6549C14.9755 234.993 4.69629 224.714 4.69629 212.034C4.69629 199.355 14.9749 189.076 27.6549 189.076H260.755V234.993H260.755Z" fill="#F0F5FA"/>
<path d="M235.713 189.076H260.754V234.993H235.713V189.076Z" fill="#E4ECF2"/>
<path d="M275.117 239.688H27.6537C12.4058 239.688 0 227.283 0 212.035C0 196.786 12.4052 184.381 27.6537 184.381H275.117C277.71 184.381 279.812 186.483 279.812 189.076C279.812 191.669 277.71 193.771 275.117 193.771H27.6537C17.5836 193.771 9.39027 201.964 9.39027 212.035C9.39027 222.105 17.583 230.298 27.6537 230.298H275.117C277.71 230.298 279.812 232.4 279.812 234.993C279.812 237.586 277.71 239.688 275.117 239.688Z" fill="#00C5B5"/>
<path d="M260.754 217.705H194.825C192.232 217.705 190.13 215.603 190.13 213.01C190.13 210.417 192.232 208.314 194.825 208.314H260.754V217.705Z" fill="#C5D7E6"/>
<path d="M82.3525 4.69482H269.451C283.536 4.69482 294.954 16.1134 294.954 30.1982C294.954 44.2836 283.535 55.7015 269.451 55.7015H82.3525V4.69482Z" fill="#F0F5FA"/>
<path d="M269.45 4.69482H244.409C258.495 4.69482 269.913 16.1134 269.913 30.1982C269.913 44.2836 258.494 55.7015 244.409 55.7015H269.45C283.535 55.7015 294.953 44.283 294.953 30.1982C294.953 16.1134 283.535 4.69482 269.45 4.69482Z" fill="#E4ECF2"/>
<path d="M269.45 60.3976H66.3963C63.8033 60.3976 61.7012 58.2954 61.7012 55.7025C61.7012 53.1095 63.8033 51.0073 66.3963 51.0073H269.45C280.923 51.0073 290.258 41.6728 290.258 30.1991C290.258 18.7255 280.923 9.39027 269.45 9.39027H66.3963C63.8033 9.39027 61.7012 7.2881 61.7012 4.69514C61.7012 2.10217 63.8033 0 66.3963 0H269.45C286.101 0 299.648 13.547 299.648 30.1985C299.648 46.85 286.101 60.3976 269.45 60.3976Z" fill="#FC435F"/>
<path d="M36.6865 127.564H315.829V184.38H36.6865V127.564Z" fill="#79C9F9"/>
<path d="M230.586 127.564H315.829V184.38H230.586V127.564Z" fill="#BF6930"/>
<path d="M290.787 127.564H315.828V184.38H290.787V127.564Z" fill="#AD5F2C"/>
<path d="M132.718 165.363H68.858C63.6721 165.363 59.4678 161.158 59.4678 155.972C59.4678 150.786 63.6721 146.582 68.858 146.582H132.718C137.903 146.582 142.108 150.786 142.108 155.972C142.108 161.158 137.903 165.363 132.718 165.363Z" fill="#FFF5F5"/>
<path d="M288.701 160.668H258.131C255.538 160.668 253.436 158.565 253.436 155.972C253.436 153.38 255.538 151.277 258.131 151.277H288.701C291.294 151.277 293.396 153.38 293.396 155.972C293.396 158.565 291.295 160.668 288.701 160.668V160.668Z" fill="#FFF5F5"/>
<path d="M203.25 104.517C200.657 104.517 198.555 102.415 198.555 99.8222V88.1395C198.555 85.5465 200.657 83.4443 203.25 83.4443C205.843 83.4443 207.945 85.5465 207.945 88.1395V99.8222C207.945 102.415 205.843 104.517 203.25 104.517Z" fill="#677A8F"/>
<path d="M186.138 104.517C183.546 104.517 181.443 102.415 181.443 99.8222V88.1395C181.443 85.5465 183.546 83.4443 186.138 83.4443C188.731 83.4443 190.834 85.5465 190.834 88.1395V99.8222C190.834 102.415 188.732 104.517 186.138 104.517Z" fill="#677A8F"/>
<path d="M169.028 104.517C166.435 104.517 164.333 102.415 164.333 99.8222V88.1395C164.333 85.5465 166.435 83.4443 169.028 83.4443C171.621 83.4443 173.723 85.5465 173.723 88.1395V99.8222C173.723 102.415 171.621 104.517 169.028 104.517Z" fill="#677A8F"/>
<path d="M82.2188 25.5024H189.354C191.947 25.5024 194.049 27.6046 194.049 30.1976C194.049 32.7905 191.947 34.8927 189.354 34.8927H82.2188V25.5024Z" fill="#C5D7E6"/>
<path d="M460.905 141.58H511.505V166H430.105V12.44H460.905V141.58ZM561.881 12.44V166H531.081V12.44H561.881ZM723.652 166H692.852L623.112 60.62V166H592.312V12.22H623.112L692.852 117.82V12.22H723.652V166ZM861.009 58.64C857.489 52.1867 852.649 47.2733 846.489 43.9C840.329 40.5267 833.143 38.84 824.929 38.84C815.836 38.84 807.769 40.8933 800.729 45C793.689 49.1067 788.189 54.9733 784.229 62.6C780.269 70.2267 778.289 79.0267 778.289 89C778.289 99.2667 780.269 108.213 784.229 115.84C788.336 123.467 793.983 129.333 801.169 133.44C808.356 137.547 816.716 139.6 826.249 139.6C837.983 139.6 847.589 136.52 855.069 130.36C862.549 124.053 867.463 115.327 869.809 104.18H817.009V80.64H900.169V107.48C898.116 118.187 893.716 128.087 886.969 137.18C880.223 146.273 871.496 153.607 860.789 159.18C850.229 164.607 838.349 167.32 825.149 167.32C810.336 167.32 796.916 164.02 784.889 157.42C773.009 150.673 763.623 141.36 756.729 129.48C749.983 117.6 746.609 104.107 746.609 89C746.609 73.8933 749.983 60.4 756.729 48.52C763.623 36.4933 773.009 27.18 784.889 20.58C796.916 13.8333 810.263 10.46 824.929 10.46C842.236 10.46 857.269 14.7133 870.029 23.22C882.789 31.58 891.589 43.3867 896.429 58.64H861.009ZM953.316 12.44V107.48C953.316 117.893 956.03 125.887 961.456 131.46C966.883 136.887 974.51 139.6 984.336 139.6C994.31 139.6 1002.01 136.887 1007.44 131.46C1012.86 125.887 1015.58 117.893 1015.58 107.48V12.44H1046.6V107.26C1046.6 120.313 1043.74 131.387 1038.02 140.48C1032.44 149.427 1024.89 156.173 1015.36 160.72C1005.97 165.267 995.483 167.54 983.896 167.54C972.456 167.54 962.043 165.267 952.656 160.72C943.416 156.173 936.083 149.427 930.656 140.48C925.23 131.387 922.516 120.313 922.516 107.26V12.44H953.316ZM1170.51 136.74H1109.35L1099.23 166H1066.89L1122.11 12.22H1157.97L1213.19 166H1180.63L1170.51 136.74ZM1162.15 112.1L1139.93 47.86L1117.71 112.1H1162.15ZM1365.18 166H1334.38L1264.64 60.62V166H1233.84V12.22H1264.64L1334.38 117.82V12.22H1365.18V166ZM1466.89 167.54C1452.52 167.54 1439.32 164.167 1427.29 157.42C1415.27 150.673 1405.73 141.36 1398.69 129.48C1391.65 117.453 1388.13 103.887 1388.13 88.78C1388.13 73.82 1391.65 60.4 1398.69 48.52C1405.73 36.4933 1415.27 27.1067 1427.29 20.36C1439.32 13.6133 1452.52 10.24 1466.89 10.24C1481.41 10.24 1494.61 13.6133 1506.49 20.36C1518.52 27.1067 1527.98 36.4933 1534.87 48.52C1541.91 60.4 1545.43 73.82 1545.43 88.78C1545.43 103.887 1541.91 117.453 1534.87 129.48C1527.98 141.36 1518.52 150.673 1506.49 157.42C1494.47 164.167 1481.27 167.54 1466.89 167.54ZM1466.89 140.04C1476.13 140.04 1484.27 137.987 1491.31 133.88C1498.35 129.627 1503.85 123.613 1507.81 115.84C1511.77 108.067 1513.75 99.0467 1513.75 88.78C1513.75 78.5133 1511.77 69.5667 1507.81 61.94C1503.85 54.1667 1498.35 48.2267 1491.31 44.12C1484.27 40.0133 1476.13 37.96 1466.89 37.96C1457.65 37.96 1449.44 40.0133 1442.25 44.12C1435.21 48.2267 1429.71 54.1667 1425.75 61.94C1421.79 69.5667 1419.81 78.5133 1419.81 88.78C1419.81 99.0467 1421.79 108.067 1425.75 115.84C1429.71 123.613 1435.21 129.627 1442.25 133.88C1449.44 137.987 1457.65 140.04 1466.89 140.04ZM1773.61 12.44L1730.71 166H1694.41L1665.59 56.66L1635.45 166L1599.37 166.22L1558.01 12.44H1591.01L1618.07 131.68L1649.31 12.44H1683.63L1713.11 131.02L1740.39 12.44H1773.61Z" fill="white"/>
<path d="M438.525 302.45H456.825V308H431.7V255.725H438.525V302.45ZM472.773 261.275V278.75H491.823V284.375H472.773V302.375H494.073V308H465.948V255.65H494.073V261.275H472.773ZM537.175 296.375H514.375L510.175 308H502.975L521.875 256.025H529.75L548.575 308H541.375L537.175 296.375ZM535.225 290.825L525.775 264.425L516.325 290.825H535.225ZM586.212 308L573.762 286.625H565.512V308H558.687V255.725H575.562C579.512 255.725 582.837 256.4 585.537 257.75C588.287 259.1 590.337 260.925 591.687 263.225C593.037 265.525 593.712 268.15 593.712 271.1C593.712 274.7 592.662 277.875 590.562 280.625C588.512 283.375 585.412 285.2 581.262 286.1L594.387 308H586.212ZM565.512 281.15H575.562C579.262 281.15 582.037 280.25 583.887 278.45C585.737 276.6 586.662 274.15 586.662 271.1C586.662 268 585.737 265.6 583.887 263.9C582.087 262.2 579.312 261.35 575.562 261.35H565.512V281.15ZM647.292 308H640.467L613.017 266.375V308H606.192V255.65H613.017L640.467 297.2V255.65H647.292V308ZM714.846 255.725V261.275H700.596V308H693.771V261.275H679.446V255.725H714.846ZM748.823 308.525C743.973 308.525 739.548 307.4 735.548 305.15C731.548 302.85 728.373 299.675 726.023 295.625C723.723 291.525 722.573 286.925 722.573 281.825C722.573 276.725 723.723 272.15 726.023 268.1C728.373 264 731.548 260.825 735.548 258.575C739.548 256.275 743.973 255.125 748.823 255.125C753.723 255.125 758.173 256.275 762.173 258.575C766.173 260.825 769.323 263.975 771.623 268.025C773.923 272.075 775.073 276.675 775.073 281.825C775.073 286.975 773.923 291.575 771.623 295.625C769.323 299.675 766.173 302.85 762.173 305.15C758.173 307.4 753.723 308.525 748.823 308.525ZM748.823 302.6C752.473 302.6 755.748 301.75 758.648 300.05C761.598 298.35 763.898 295.925 765.548 292.775C767.248 289.625 768.098 285.975 768.098 281.825C768.098 277.625 767.248 273.975 765.548 270.875C763.898 267.725 761.623 265.3 758.723 263.6C755.823 261.9 752.523 261.05 748.823 261.05C745.123 261.05 741.823 261.9 738.923 263.6C736.023 265.3 733.723 267.725 732.023 270.875C730.373 273.975 729.548 277.625 729.548 281.825C729.548 285.975 730.373 289.625 732.023 292.775C733.723 295.925 736.023 298.35 738.923 300.05C741.873 301.75 745.173 302.6 748.823 302.6ZM824.403 308.525C820.953 308.525 817.853 307.925 815.103 306.725C812.403 305.475 810.278 303.775 808.728 301.625C807.178 299.425 806.378 296.9 806.328 294.05H813.603C813.853 296.5 814.853 298.575 816.603 300.275C818.403 301.925 821.003 302.75 824.403 302.75C827.653 302.75 830.203 301.95 832.053 300.35C833.953 298.7 834.903 296.6 834.903 294.05C834.903 292.05 834.353 290.425 833.253 289.175C832.153 287.925 830.778 286.975 829.128 286.325C827.478 285.675 825.253 284.975 822.453 284.225C819.003 283.325 816.228 282.425 814.128 281.525C812.078 280.625 810.303 279.225 808.803 277.325C807.353 275.375 806.628 272.775 806.628 269.525C806.628 266.675 807.353 264.15 808.803 261.95C810.253 259.75 812.278 258.05 814.878 256.85C817.528 255.65 820.553 255.05 823.953 255.05C828.853 255.05 832.853 256.275 835.953 258.725C839.103 261.175 840.878 264.425 841.278 268.475H833.778C833.528 266.475 832.478 264.725 830.628 263.225C828.778 261.675 826.328 260.9 823.278 260.9C820.428 260.9 818.103 261.65 816.303 263.15C814.503 264.6 813.603 266.65 813.603 269.3C813.603 271.2 814.128 272.75 815.178 273.95C816.278 275.15 817.603 276.075 819.153 276.725C820.753 277.325 822.978 278.025 825.828 278.825C829.278 279.775 832.053 280.725 834.153 281.675C836.253 282.575 838.053 284 839.553 285.95C841.053 287.85 841.803 290.45 841.803 293.75C841.803 296.3 841.128 298.7 839.778 300.95C838.428 303.2 836.428 305.025 833.778 306.425C831.128 307.825 828.003 308.525 824.403 308.525ZM888.671 271.025C888.671 275.375 887.171 279 884.171 281.9C881.221 284.75 876.696 286.175 870.596 286.175H860.546V308H853.721V255.725H870.596C876.496 255.725 880.971 257.15 884.021 260C887.121 262.85 888.671 266.525 888.671 271.025ZM870.596 280.55C874.396 280.55 877.196 279.725 878.996 278.075C880.796 276.425 881.696 274.075 881.696 271.025C881.696 264.575 877.996 261.35 870.596 261.35H860.546V280.55H870.596ZM905.854 261.275V278.75H924.904V284.375H905.854V302.375H927.154V308H899.029V255.65H927.154V261.275H905.854ZM970.256 296.375H947.456L943.256 308H936.056L954.956 256.025H962.831L981.656 308H974.456L970.256 296.375ZM968.306 290.825L958.856 264.425L949.406 290.825H968.306ZM1020.12 308L998.593 284.15V308H991.768V255.725H998.593V279.95L1020.19 255.725H1028.82L1005.12 281.9L1029.04 308H1020.12ZM1067.24 261.275V278.75H1086.29V284.375H1067.24V302.375H1088.54V308H1060.41V255.65H1088.54V261.275H1067.24ZM1131.64 296.375H1108.84L1104.64 308H1097.44L1116.34 256.025H1124.21L1143.04 308H1135.84L1131.64 296.375ZM1129.69 290.825L1120.24 264.425L1110.79 290.825H1129.69ZM1169.73 308.525C1166.28 308.525 1163.18 307.925 1160.43 306.725C1157.73 305.475 1155.6 303.775 1154.05 301.625C1152.5 299.425 1151.7 296.9 1151.65 294.05H1158.93C1159.18 296.5 1160.18 298.575 1161.93 300.275C1163.73 301.925 1166.33 302.75 1169.73 302.75C1172.98 302.75 1175.53 301.95 1177.38 300.35C1179.28 298.7 1180.23 296.6 1180.23 294.05C1180.23 292.05 1179.68 290.425 1178.58 289.175C1177.48 287.925 1176.1 286.975 1174.45 286.325C1172.8 285.675 1170.58 284.975 1167.78 284.225C1164.33 283.325 1161.55 282.425 1159.45 281.525C1157.4 280.625 1155.63 279.225 1154.13 277.325C1152.68 275.375 1151.95 272.775 1151.95 269.525C1151.95 266.675 1152.68 264.15 1154.13 261.95C1155.58 259.75 1157.6 258.05 1160.2 256.85C1162.85 255.65 1165.88 255.05 1169.28 255.05C1174.18 255.05 1178.18 256.275 1181.28 258.725C1184.43 261.175 1186.2 264.425 1186.6 268.475H1179.1C1178.85 266.475 1177.8 264.725 1175.95 263.225C1174.1 261.675 1171.65 260.9 1168.6 260.9C1165.75 260.9 1163.43 261.65 1161.63 263.15C1159.83 264.6 1158.93 266.65 1158.93 269.3C1158.93 271.2 1159.45 272.75 1160.5 273.95C1161.6 275.15 1162.93 276.075 1164.48 276.725C1166.08 277.325 1168.3 278.025 1171.15 278.825C1174.6 279.775 1177.38 280.725 1179.48 281.675C1181.58 282.575 1183.38 284 1184.88 285.95C1186.38 287.85 1187.13 290.45 1187.13 293.75C1187.13 296.3 1186.45 298.7 1185.1 300.95C1183.75 303.2 1181.75 305.025 1179.1 306.425C1176.45 307.825 1173.33 308.525 1169.73 308.525ZM1205.87 255.725V308H1199.04V255.725H1205.87ZM1226.2 302.45H1244.5V308H1219.38V255.725H1226.2V302.45ZM1290.22 255.725L1273.2 288.275V308H1266.37V288.275L1249.27 255.725H1256.85L1269.75 282.2L1282.65 255.725H1290.22ZM1348.69 308L1336.24 286.625H1327.99V308H1321.17V255.725H1338.04C1341.99 255.725 1345.32 256.4 1348.02 257.75C1350.77 259.1 1352.82 260.925 1354.17 263.225C1355.52 265.525 1356.19 268.15 1356.19 271.1C1356.19 274.7 1355.14 277.875 1353.04 280.625C1350.99 283.375 1347.89 285.2 1343.74 286.1L1356.87 308H1348.69ZM1327.99 281.15H1338.04C1341.74 281.15 1344.52 280.25 1346.37 278.45C1348.22 276.6 1349.14 274.15 1349.14 271.1C1349.14 268 1348.22 265.6 1346.37 263.9C1344.57 262.2 1341.79 261.35 1338.04 261.35H1327.99V281.15ZM1375.5 255.725V308H1368.67V255.725H1375.5ZM1428.6 270.875C1427.15 267.825 1425.05 265.475 1422.3 263.825C1419.55 262.125 1416.35 261.275 1412.7 261.275C1409.05 261.275 1405.75 262.125 1402.8 263.825C1399.9 265.475 1397.6 267.875 1395.9 271.025C1394.25 274.125 1393.43 277.725 1393.43 281.825C1393.43 285.925 1394.25 289.525 1395.9 292.625C1397.6 295.725 1399.9 298.125 1402.8 299.825C1405.75 301.475 1409.05 302.3 1412.7 302.3C1417.8 302.3 1422 300.775 1425.3 297.725C1428.6 294.675 1430.53 290.55 1431.08 285.35H1410.23V279.8H1438.35V285.05C1437.95 289.35 1436.6 293.3 1434.3 296.9C1432 300.45 1428.98 303.275 1425.23 305.375C1421.48 307.425 1417.3 308.45 1412.7 308.45C1407.85 308.45 1403.43 307.325 1399.43 305.075C1395.43 302.775 1392.25 299.6 1389.9 295.55C1387.6 291.5 1386.45 286.925 1386.45 281.825C1386.45 276.725 1387.6 272.15 1389.9 268.1C1392.25 264 1395.43 260.825 1399.43 258.575C1403.43 256.275 1407.85 255.125 1412.7 255.125C1418.25 255.125 1423.15 256.5 1427.4 259.25C1431.7 262 1434.83 265.875 1436.78 270.875H1428.6ZM1489.53 255.725V308H1482.7V284.3H1456.08V308H1449.25V255.725H1456.08V278.675H1482.7V255.725H1489.53ZM1535.23 255.725V261.275H1520.98V308H1514.16V261.275H1499.83V255.725H1535.23ZM1608.48 308H1601.65L1574.2 266.375V308H1567.38V255.65H1574.2L1601.65 297.2V255.65H1608.48V308ZM1645.69 308.525C1640.84 308.525 1636.41 307.4 1632.41 305.15C1628.41 302.85 1625.24 299.675 1622.89 295.625C1620.59 291.525 1619.44 286.925 1619.44 281.825C1619.44 276.725 1620.59 272.15 1622.89 268.1C1625.24 264 1628.41 260.825 1632.41 258.575C1636.41 256.275 1640.84 255.125 1645.69 255.125C1650.59 255.125 1655.04 256.275 1659.04 258.575C1663.04 260.825 1666.19 263.975 1668.49 268.025C1670.79 272.075 1671.94 276.675 1671.94 281.825C1671.94 286.975 1670.79 291.575 1668.49 295.625C1666.19 299.675 1663.04 302.85 1659.04 305.15C1655.04 307.4 1650.59 308.525 1645.69 308.525ZM1645.69 302.6C1649.34 302.6 1652.61 301.75 1655.51 300.05C1658.46 298.35 1660.76 295.925 1662.41 292.775C1664.11 289.625 1664.96 285.975 1664.96 281.825C1664.96 277.625 1664.11 273.975 1662.41 270.875C1660.76 267.725 1658.49 265.3 1655.59 263.6C1652.69 261.9 1649.39 261.05 1645.69 261.05C1641.99 261.05 1638.69 261.9 1635.79 263.6C1632.89 265.3 1630.59 267.725 1628.89 270.875C1627.24 273.975 1626.41 277.625 1626.41 281.825C1626.41 285.975 1627.24 289.625 1628.89 292.775C1630.59 295.925 1632.89 298.35 1635.79 300.05C1638.74 301.75 1642.04 302.6 1645.69 302.6ZM1748.52 255.725L1733.37 308H1725.72L1713.57 265.925L1700.97 308L1693.4 308.075L1678.77 255.725H1686.05L1697.45 300.05L1710.05 255.725H1717.7L1729.7 299.9L1741.17 255.725H1748.52Z" fill="white" fill-opacity="0.42"/>
</svg>
