<svg width="370" height="370" viewBox="0 0 370 370" fill="none" xmlns="http://www.w3.org/2000/svg">
<circle cx="185" cy="185" r="185" fill="#DFFFEC"/>
<path d="M89.6 183.2C89.6 160.133 93.7333 142.067 102 129C110.4 115.933 124.267 109.4 143.6 109.4C162.933 109.4 176.733 115.933 185 129C193.4 142.067 197.6 160.133 197.6 183.2C197.6 206.4 193.4 224.6 185 237.8C176.733 251 162.933 257.6 143.6 257.6C124.267 257.6 110.4 251 102 237.8C93.7333 224.6 89.6 206.4 89.6 183.2ZM170 183.2C170 173.333 169.333 165.067 168 158.4C166.8 151.6 164.267 146.067 160.4 141.8C156.667 137.533 151.067 135.4 143.6 135.4C136.133 135.4 130.467 137.533 126.6 141.8C122.867 146.067 120.333 151.6 119 158.4C117.8 165.067 117.2 173.333 117.2 183.2C117.2 193.333 117.8 201.867 119 208.8C120.2 215.6 122.733 221.133 126.6 225.4C130.467 229.533 136.133 231.6 143.6 231.6C151.067 231.6 156.733 229.533 160.6 225.4C164.467 221.133 167 215.6 168.2 208.8C169.4 201.867 170 193.333 170 183.2ZM215.497 138V112.2H263.697V258H234.897V138H215.497Z" fill="#00C5B5"/>
</svg>
