<svg width="512" height="512" viewBox="0 0 512 512" fill="none" xmlns="http://www.w3.org/2000/svg">
<g clip-path="url(#clip0_2_452)">
<path d="M55.123 113.665C59.46 117.084 65.748 116.34 69.167 112.003C72.586 107.666 71.842 101.379 67.505 97.96C63.168 94.541 56.88 95.285 53.461 99.622C50.042 103.959 50.786 110.246 55.123 113.665V113.665Z" fill="#FFB83C"/>
<path d="M155.493 312.26C161.027 312.26 165.513 307.774 165.513 302.24C165.513 296.706 161.027 292.22 155.493 292.22C149.959 292.22 145.473 296.706 145.473 302.24C145.473 307.774 149.959 312.26 155.493 312.26Z" fill="#FFB83C"/>
<path d="M195.571 312.26C201.105 312.26 205.591 307.774 205.591 302.24C205.591 296.706 201.105 292.22 195.571 292.22C190.037 292.22 185.551 296.706 185.551 302.24C185.551 307.774 190.037 312.26 195.571 312.26Z" fill="#FFB83C"/>
<path d="M235.65 312.26C241.184 312.26 245.67 307.774 245.67 302.24C245.67 296.706 241.184 292.22 235.65 292.22C230.116 292.22 225.63 296.706 225.63 302.24C225.63 307.774 230.116 312.26 235.65 312.26Z" fill="#FFB83C"/>
<path d="M381.267 459.918C386.801 459.918 391.287 455.432 391.287 449.898C391.287 444.364 386.801 439.878 381.267 439.878C375.733 439.878 371.247 444.364 371.247 449.898C371.247 455.432 375.733 459.918 381.267 459.918Z" fill="#FFB83C"/>
<path d="M421.345 459.918C426.879 459.918 431.365 455.432 431.365 449.898C431.365 444.364 426.879 439.878 421.345 439.878C415.811 439.878 411.325 444.364 411.325 449.898C411.325 455.432 415.811 459.918 421.345 459.918Z" fill="#FFB83C"/>
<path d="M461.423 459.918C466.957 459.918 471.443 455.432 471.443 449.898C471.443 444.364 466.957 439.878 461.423 439.878C455.889 439.878 451.403 444.364 451.403 449.898C451.403 455.432 455.889 459.918 461.423 459.918Z" fill="#FFB83C"/>
<path d="M381.267 70.49C386.801 70.49 391.287 66.0039 391.287 60.47C391.287 54.9361 386.801 50.45 381.267 50.45C375.733 50.45 371.247 54.9361 371.247 60.47C371.247 66.0039 375.733 70.49 381.267 70.49Z" fill="#FFB83C"/>
<path d="M421.345 70.49C426.879 70.49 431.365 66.0039 431.365 60.47C431.365 54.9361 426.879 50.45 421.345 50.45C415.811 50.45 411.325 54.9361 411.325 60.47C411.325 66.0039 415.811 70.49 421.345 70.49Z" fill="#FFB83C"/>
<path d="M461.423 70.49C466.957 70.49 471.443 66.0039 471.443 60.47C471.443 54.9361 466.957 50.45 461.423 50.45C455.889 50.45 451.403 54.9361 451.403 60.47C451.403 66.0039 455.889 70.49 461.423 70.49Z" fill="#FFB83C"/>
<path d="M484.483 390.242H474.017C498.917 349.948 511.997 303.921 511.997 256C511.997 206.515 498.127 159.237 471.728 118.116H484.482C499.654 118.116 511.998 105.773 511.998 90.6V31.89C511.998 16.718 499.655 4.374 484.482 4.374H358.898C350.757 4.374 343.433 7.931 338.391 13.57C311.941 4.572 284.268 0 256 0C192.956 0 132.379 23.119 85.427 65.099C81.698 68.433 81.02 74.207 83.892 78.308C87.288 83.157 94.367 83.987 98.785 80.038C107.576 72.178 116.893 65.049 126.634 58.656L169.316 109.867L133.494 181.659C131.572 185.511 132.325 190.161 135.366 193.209L160.946 218.85L154.866 245.98H131.979C116.913 245.98 104.566 258.231 104.456 273.363V328.475L92.09 355.834C88.573 363.616 96.239 372.158 104.365 369.474L133.863 359.721H159.741L141.488 405.884C140.682 407.922 140.567 410.166 141.159 412.276L157.505 470.539C132.398 458.997 109.273 442.972 89.15 422.849C73.324 407.023 60.037 389.337 49.463 370.294C49.512 370.183 49.576 370.084 49.621 369.97L72.287 312.847C72.807 311.538 73.044 310.134 72.984 308.726L70.479 249.831C70.366 247.167 69.196 244.659 67.228 242.86L43.834 221.483L30.778 185.334C34.784 172.588 39.888 160.144 46.115 148.061C48.65 143.142 46.717 137.1 41.798 134.565C36.879 132.03 30.837 133.963 28.302 138.882C9.786 174.811 0 215.309 0 256C0 324.382 26.628 388.669 74.979 437.021C123.33 485.372 187.618 512 256 512C285.25 512 313.861 507.111 341.158 497.477C345.952 501.532 352.144 503.984 358.9 503.984H484.484C499.657 503.984 512.001 491.64 512.001 476.468V417.758C512 402.586 499.657 390.242 484.483 390.242V390.242ZM22.522 221.471L25.825 230.618C26.376 232.145 27.291 233.516 28.49 234.611L50.634 254.846L52.871 307.444L37.657 345.788C26.101 317.681 20.039 287.307 20.039 256C20.039 244.317 20.874 232.799 22.522 221.471V221.471ZM331.286 380.484C327.511 379.236 323.354 380.338 320.692 383.294C318.03 386.25 317.371 390.5 319.01 394.125L331.383 421.488V468.935L304.019 402.126C303.066 399.799 301.273 397.916 298.997 396.85L255.952 376.689L256.642 359.722H257.563C272.734 359.722 285.077 347.38 285.077 332.208V299.234L300.129 286.119L383.861 288.127L430.1 346.94L440.133 390.243H360.786L331.286 380.484ZM487.306 208.981L435.711 180.978C434.066 180.086 432.202 179.672 430.34 179.782L328.901 185.781C326.79 185.906 324.773 186.695 323.138 188.037L293.336 212.488L268.119 197.005L267.532 170.861L294.147 161.219C298.416 159.673 301.112 155.448 300.715 150.925L297.204 110.842L331.382 86.206V86.873L319.009 114.236C315.491 122.017 323.157 130.565 331.285 127.877L360.785 118.119H447.498C467.305 145.55 480.741 176.343 487.306 208.981ZM358.898 24.414H484.483C488.605 24.414 491.96 27.768 491.96 31.891V90.601C491.96 94.724 488.606 98.077 484.483 98.077H359.171C358.102 98.077 357.04 98.248 356.024 98.584L346.681 101.675L350.531 93.158C351.118 91.861 351.421 90.454 351.421 89.03V31.891C351.421 27.768 354.775 24.414 358.898 24.414V24.414ZM179.019 208.595L154.641 184.159L190.169 112.956C191.945 109.396 191.447 105.123 188.9 102.068L144.057 48.265C178.182 29.865 216.564 20.041 255.999 20.041C281.864 20.041 307.18 24.19 331.382 32.355V61.5L280.866 97.913C278.002 99.978 276.435 103.398 276.744 106.915L280.08 144.999L253.939 154.47C249.896 155.935 247.238 159.816 247.335 164.115L248.207 202.911C248.283 206.313 250.082 209.444 252.981 211.225L288.931 233.298C292.572 235.532 297.226 235.214 300.529 232.505L333.332 205.593L428.665 199.956L490.922 233.745C491.604 241.099 491.958 248.521 491.958 256.001C491.958 299.56 480.237 341.418 457.907 378.18L449.116 340.241C448.783 338.808 448.14 337.466 447.231 336.31L396.693 272.031C394.846 269.681 392.045 268.279 389.057 268.207L296.716 265.993C294.216 265.939 291.781 266.811 289.894 268.455L285.053 272.673C284.616 257.881 272.456 245.98 257.56 245.98H175.4L181.702 217.862C182.452 214.518 181.439 211.022 179.019 208.595V208.595ZM132.248 339.683C131.179 339.683 130.117 339.854 129.103 340.189L119.754 343.28L123.604 334.761C124.19 333.465 124.493 332.058 124.493 330.634V273.435C124.523 269.345 127.88 266.018 131.978 266.018H257.563C261.684 266.018 265.038 269.371 265.038 273.493V332.208C265.038 336.329 261.685 339.683 257.563 339.683H132.248ZM180.9 479.808C180.875 479.707 180.86 479.606 180.831 479.505L161.363 410.114L181.288 359.722H236.586L235.658 382.53C235.494 386.562 237.765 390.3 241.42 392.011L286.957 413.339L316.004 484.256C296.525 489.368 276.434 491.96 256 491.96C230.073 491.96 204.789 487.798 180.9 479.808V479.808ZM491.961 476.468C491.961 480.591 488.607 483.945 484.484 483.945H358.9C354.777 483.945 351.423 480.591 351.423 476.468V419.329C351.423 417.905 351.12 416.498 350.533 415.201L346.683 406.684L356.026 409.775C357.042 410.111 358.103 410.282 359.173 410.282H484.485C488.608 410.282 491.962 413.636 491.962 417.758V476.468H491.961Z" fill="#FFB83C"/>
</g>
<defs>
<clipPath id="clip0_2_452">
<rect width="512" height="512" fill="white"/>
</clipPath>
</defs>
</svg>
